solid CATIA STL
  facet normal  0.000000e+000  0.000000e+000  1.000000e+000
    outer loop
      vertex  4.700000e+001  5.175000e+001  2.000000e+000
      vertex  5.300000e+001  5.875000e+001  2.000000e+000
      vertex  4.648744e+001  5.298744e+001  2.000000e+000
    endloop
  endfacet
  facet normal  0.000000e+000  0.000000e+000  1.000000e+000
    outer loop
      vertex -5.125000e+001 -6.050000e+001  2.000000e+000
      vertex -4.525000e+001 -5.350000e+001  2.000000e+000
      vertex -5.176256e+001 -5.926256e+001  2.000000e+000
    endloop
  endfacet
  facet normal  0.000000e+000  0.000000e+000  1.000000e+000
    outer loop
      vertex -5.125000e+001 -6.050000e+001  2.000000e+000
      vertex -5.176256e+001 -6.173744e+001  2.000000e+000
      vertex -4.525000e+001 -5.350000e+001  2.000000e+000
    endloop
  endfacet
  facet normal  0.000000e+000  0.000000e+000  1.000000e+000
    outer loop
      vertex -6.000000e+001 -6.250000e+001  2.000000e+000
      vertex -5.933013e+001 -6.500000e+001  2.000000e+000
      vertex -5.750000e+001 -6.683012e+001  2.000000e+000
    endloop
  endfacet
  facet normal  0.000000e+000  0.000000e+000  1.000000e+000
    outer loop
      vertex  5.125000e+001 -6.050000e+001  2.000000e+000
      vertex  5.176256e+001 -5.926256e+001  2.000000e+000
      vertex  4.525000e+001 -5.350000e+001  2.000000e+000
    endloop
  endfacet
  facet normal  0.000000e+000  0.000000e+000  1.000000e+000
    outer loop
      vertex -4.648744e+001 -5.051256e+001  2.000000e+000
      vertex -4.525000e+001 -5.000000e+001  2.000000e+000
      vertex -4.525000e+001  5.000000e+001  2.000000e+000
    endloop
  endfacet
  facet normal  0.000000e+000  0.000000e+000  1.000000e+000
    outer loop
      vertex  4.648744e+001 -5.051256e+001  2.000000e+000
      vertex  4.525000e+001  5.000000e+001  2.000000e+000
      vertex  4.525000e+001 -5.000000e+001  2.000000e+000
    endloop
  endfacet
  facet normal  0.000000e+000  0.000000e+000  1.000000e+000
    outer loop
      vertex  6.000000e+001  6.250000e+001  2.000000e+000
      vertex  5.300000e+001  6.225000e+001  2.000000e+000
      vertex  5.423744e+001  6.173744e+001  2.000000e+000
    endloop
  endfacet
  facet normal  0.000000e+000  0.000000e+000  1.000000e+000
    outer loop
      vertex  6.000000e+001  6.250000e+001  2.000000e+000
      vertex  5.423744e+001  6.173744e+001  2.000000e+000
      vertex  5.475000e+001  6.050000e+001  2.000000e+000
    endloop
  endfacet
  facet normal  0.000000e+000  0.000000e+000  1.000000e+000
    outer loop
      vertex  6.000000e+001  6.250000e+001  2.000000e+000
      vertex  5.475000e+001  6.050000e+001  2.000000e+000
      vertex  6.000000e+001 -6.250000e+001  2.000000e+000
    endloop
  endfacet
  facet normal  0.000000e+000  0.000000e+000  1.000000e+000
    outer loop
      vertex -5.500000e+001 -6.750000e+001  2.000000e+000
      vertex  5.500000e+001 -6.750000e+001  2.000000e+000
      vertex  5.300000e+001 -6.225000e+001  2.000000e+000
    endloop
  endfacet
  facet normal  0.000000e+000  0.000000e+000  1.000000e+000
    outer loop
      vertex -5.500000e+001 -6.750000e+001  2.000000e+000
      vertex  5.300000e+001 -6.225000e+001  2.000000e+000
      vertex  5.176256e+001 -6.173744e+001  2.000000e+000
    endloop
  endfacet
  facet normal  0.000000e+000  0.000000e+000  1.000000e+000
    outer loop
      vertex -5.500000e+001 -6.750000e+001  2.000000e+000
      vertex  5.176256e+001 -6.173744e+001  2.000000e+000
      vertex  5.125000e+001 -6.050000e+001  2.000000e+000
    endloop
  endfacet
  facet normal  0.000000e+000  0.000000e+000  1.000000e+000
    outer loop
      vertex -5.500000e+001 -6.750000e+001  2.000000e+000
      vertex  5.125000e+001 -6.050000e+001  2.000000e+000
      vertex  4.525000e+001 -5.350000e+001  2.000000e+000
    endloop
  endfacet
  facet normal  0.000000e+000  0.000000e+000  1.000000e+000
    outer loop
      vertex -5.500000e+001 -6.750000e+001  2.000000e+000
      vertex  4.525000e+001 -5.350000e+001  2.000000e+000
      vertex -4.525000e+001 -5.350000e+001  2.000000e+000
    endloop
  endfacet
  facet normal  0.000000e+000  0.000000e+000  1.000000e+000
    outer loop
      vertex -5.500000e+001 -6.750000e+001  2.000000e+000
      vertex -4.525000e+001 -5.350000e+001  2.000000e+000
      vertex -5.176256e+001 -6.173744e+001  2.000000e+000
    endloop
  endfacet
  facet normal  0.000000e+000  0.000000e+000  1.000000e+000
    outer loop
      vertex -5.500000e+001 -6.750000e+001  2.000000e+000
      vertex -5.176256e+001 -6.173744e+001  2.000000e+000
      vertex -5.300000e+001 -6.225000e+001  2.000000e+000
    endloop
  endfacet
  facet normal  0.000000e+000  0.000000e+000  1.000000e+000
    outer loop
      vertex -5.500000e+001 -6.750000e+001  2.000000e+000
      vertex -5.300000e+001 -6.225000e+001  2.000000e+000
      vertex -6.000000e+001 -6.250000e+001  2.000000e+000
    endloop
  endfacet
  facet normal  0.000000e+000  0.000000e+000  1.000000e+000
    outer loop
      vertex -5.500000e+001 -6.750000e+001  2.000000e+000
      vertex -6.000000e+001 -6.250000e+001  2.000000e+000
      vertex -5.750000e+001 -6.683012e+001  2.000000e+000
    endloop
  endfacet
  facet normal  0.000000e+000  0.000000e+000  1.000000e+000
    outer loop
      vertex  5.300000e+001 -6.225000e+001  2.000000e+000
      vertex  5.500000e+001 -6.750000e+001  2.000000e+000
      vertex  5.750000e+001 -6.683012e+001  2.000000e+000
    endloop
  endfacet
  facet normal  0.000000e+000  0.000000e+000  1.000000e+000
    outer loop
      vertex  5.300000e+001 -6.225000e+001  2.000000e+000
      vertex  5.750000e+001 -6.683012e+001  2.000000e+000
      vertex  5.933013e+001 -6.500000e+001  2.000000e+000
    endloop
  endfacet
  facet normal  0.000000e+000  0.000000e+000  1.000000e+000
    outer loop
      vertex  5.300000e+001 -6.225000e+001  2.000000e+000
      vertex  5.933013e+001 -6.500000e+001  2.000000e+000
      vertex  6.000000e+001 -6.250000e+001  2.000000e+000
    endloop
  endfacet
  facet normal  0.000000e+000  0.000000e+000  1.000000e+000
    outer loop
      vertex -5.500000e+001  6.750000e+001  2.000000e+000
      vertex -5.750000e+001  6.683012e+001  2.000000e+000
      vertex -5.300000e+001  6.225000e+001  2.000000e+000
    endloop
  endfacet
  facet normal  0.000000e+000  0.000000e+000  1.000000e+000
    outer loop
      vertex -5.500000e+001  6.750000e+001  2.000000e+000
      vertex -5.300000e+001  6.225000e+001  2.000000e+000
      vertex -5.176256e+001  6.173744e+001  2.000000e+000
    endloop
  endfacet
  facet normal  0.000000e+000  0.000000e+000  1.000000e+000
    outer loop
      vertex -5.500000e+001  6.750000e+001  2.000000e+000
      vertex -5.176256e+001  6.173744e+001  2.000000e+000
      vertex -4.525000e+001  5.350000e+001  2.000000e+000
    endloop
  endfacet
  facet normal  0.000000e+000  0.000000e+000  1.000000e+000
    outer loop
      vertex -5.500000e+001  6.750000e+001  2.000000e+000
      vertex -4.525000e+001  5.350000e+001  2.000000e+000
      vertex  4.525000e+001  5.350000e+001  2.000000e+000
    endloop
  endfacet
  facet normal  0.000000e+000  0.000000e+000  1.000000e+000
    outer loop
      vertex -5.500000e+001  6.750000e+001  2.000000e+000
      vertex  4.525000e+001  5.350000e+001  2.000000e+000
      vertex  5.176256e+001  6.173744e+001  2.000000e+000
    endloop
  endfacet
  facet normal  0.000000e+000  0.000000e+000  1.000000e+000
    outer loop
      vertex -5.500000e+001  6.750000e+001  2.000000e+000
      vertex  5.176256e+001  6.173744e+001  2.000000e+000
      vertex  5.300000e+001  6.225000e+001  2.000000e+000
    endloop
  endfacet
  facet normal  0.000000e+000  0.000000e+000  1.000000e+000
    outer loop
      vertex -5.500000e+001  6.750000e+001  2.000000e+000
      vertex  5.300000e+001  6.225000e+001  2.000000e+000
      vertex  5.500000e+001  6.750000e+001  2.000000e+000
    endloop
  endfacet
  facet normal  0.000000e+000  0.000000e+000  1.000000e+000
    outer loop
      vertex -6.000000e+001 -6.250000e+001  2.000000e+000
      vertex -5.300000e+001 -6.225000e+001  2.000000e+000
      vertex -5.423744e+001 -6.173744e+001  2.000000e+000
    endloop
  endfacet
  facet normal  0.000000e+000  0.000000e+000  1.000000e+000
    outer loop
      vertex -6.000000e+001 -6.250000e+001  2.000000e+000
      vertex -5.423744e+001 -6.173744e+001  2.000000e+000
      vertex -5.475000e+001 -6.050000e+001  2.000000e+000
    endloop
  endfacet
  facet normal  0.000000e+000  0.000000e+000  1.000000e+000
    outer loop
      vertex -6.000000e+001 -6.250000e+001  2.000000e+000
      vertex -5.475000e+001 -6.050000e+001  2.000000e+000
      vertex -5.423744e+001 -5.926256e+001  2.000000e+000
    endloop
  endfacet
  facet normal  0.000000e+000  0.000000e+000  1.000000e+000
    outer loop
      vertex -6.000000e+001 -6.250000e+001  2.000000e+000
      vertex -5.423744e+001 -5.926256e+001  2.000000e+000
      vertex -5.300000e+001  5.875000e+001  2.000000e+000
    endloop
  endfacet
  facet normal  0.000000e+000  0.000000e+000  1.000000e+000
    outer loop
      vertex -6.000000e+001 -6.250000e+001  2.000000e+000
      vertex -5.300000e+001  5.875000e+001  2.000000e+000
      vertex -5.423744e+001  5.926256e+001  2.000000e+000
    endloop
  endfacet
  facet normal  0.000000e+000  0.000000e+000  1.000000e+000
    outer loop
      vertex -6.000000e+001 -6.250000e+001  2.000000e+000
      vertex -5.423744e+001  5.926256e+001  2.000000e+000
      vertex -5.475000e+001  6.050000e+001  2.000000e+000
    endloop
  endfacet
  facet normal  0.000000e+000  0.000000e+000  1.000000e+000
    outer loop
      vertex -6.000000e+001  6.250000e+001  2.000000e+000
      vertex -6.000000e+001 -6.250000e+001  2.000000e+000
      vertex -5.475000e+001  6.050000e+001  2.000000e+000
    endloop
  endfacet
  facet normal  0.000000e+000  0.000000e+000  1.000000e+000
    outer loop
      vertex -6.000000e+001  6.250000e+001  2.000000e+000
      vertex -5.475000e+001  6.050000e+001  2.000000e+000
      vertex -5.423744e+001  6.173744e+001  2.000000e+000
    endloop
  endfacet
  facet normal  0.000000e+000  0.000000e+000  1.000000e+000
    outer loop
      vertex -6.000000e+001  6.250000e+001  2.000000e+000
      vertex -5.423744e+001  6.173744e+001  2.000000e+000
      vertex -5.300000e+001  6.225000e+001  2.000000e+000
    endloop
  endfacet
  facet normal  0.000000e+000  0.000000e+000  1.000000e+000
    outer loop
      vertex -6.000000e+001  6.250000e+001  2.000000e+000
      vertex -5.300000e+001  6.225000e+001  2.000000e+000
      vertex -5.750000e+001  6.683012e+001  2.000000e+000
    endloop
  endfacet
  facet normal  0.000000e+000  0.000000e+000  1.000000e+000
    outer loop
      vertex -6.000000e+001  6.250000e+001  2.000000e+000
      vertex -5.750000e+001  6.683012e+001  2.000000e+000
      vertex -5.933013e+001  6.500000e+001  2.000000e+000
    endloop
  endfacet
  facet normal  0.000000e+000  0.000000e+000  1.000000e+000
    outer loop
      vertex -4.525000e+001  5.350000e+001  2.000000e+000
      vertex -5.176256e+001  6.173744e+001  2.000000e+000
      vertex -5.125000e+001  6.050000e+001  2.000000e+000
    endloop
  endfacet
  facet normal  0.000000e+000  0.000000e+000  1.000000e+000
    outer loop
      vertex -4.525000e+001  5.350000e+001  2.000000e+000
      vertex -5.125000e+001  6.050000e+001  2.000000e+000
      vertex -5.176256e+001  5.926256e+001  2.000000e+000
    endloop
  endfacet
  facet normal  0.000000e+000  0.000000e+000  1.000000e+000
    outer loop
      vertex -4.525000e+001  5.350000e+001  2.000000e+000
      vertex -5.176256e+001  5.926256e+001  2.000000e+000
      vertex -5.300000e+001  5.875000e+001  2.000000e+000
    endloop
  endfacet
  facet normal  0.000000e+000  0.000000e+000  1.000000e+000
    outer loop
      vertex -5.300000e+001 -5.875000e+001  2.000000e+000
      vertex -5.176256e+001 -5.926256e+001  2.000000e+000
      vertex -4.525000e+001 -5.350000e+001  2.000000e+000
    endloop
  endfacet
  facet normal  0.000000e+000  0.000000e+000  1.000000e+000
    outer loop
      vertex -5.300000e+001 -5.875000e+001  2.000000e+000
      vertex -4.525000e+001 -5.350000e+001  2.000000e+000
      vertex -4.648744e+001 -5.298744e+001  2.000000e+000
    endloop
  endfacet
  facet normal  0.000000e+000  0.000000e+000  1.000000e+000
    outer loop
      vertex -5.300000e+001 -5.875000e+001  2.000000e+000
      vertex -4.648744e+001 -5.298744e+001  2.000000e+000
      vertex -4.700000e+001 -5.175000e+001  2.000000e+000
    endloop
  endfacet
  facet normal  0.000000e+000  0.000000e+000  1.000000e+000
    outer loop
      vertex -5.300000e+001 -5.875000e+001  2.000000e+000
      vertex -4.700000e+001 -5.175000e+001  2.000000e+000
      vertex -4.648744e+001 -5.051256e+001  2.000000e+000
    endloop
  endfacet
  facet normal  0.000000e+000  0.000000e+000  1.000000e+000
    outer loop
      vertex -5.300000e+001 -5.875000e+001  2.000000e+000
      vertex -4.648744e+001 -5.051256e+001  2.000000e+000
      vertex -4.525000e+001  5.000000e+001  2.000000e+000
    endloop
  endfacet
  facet normal  0.000000e+000  0.000000e+000  1.000000e+000
    outer loop
      vertex -5.300000e+001 -5.875000e+001  2.000000e+000
      vertex -4.525000e+001  5.000000e+001  2.000000e+000
      vertex -4.648744e+001  5.051256e+001  2.000000e+000
    endloop
  endfacet
  facet normal  0.000000e+000  0.000000e+000  1.000000e+000
    outer loop
      vertex -5.300000e+001 -5.875000e+001  2.000000e+000
      vertex -4.648744e+001  5.051256e+001  2.000000e+000
      vertex -4.700000e+001  5.175000e+001  2.000000e+000
    endloop
  endfacet
  facet normal  0.000000e+000  0.000000e+000  1.000000e+000
    outer loop
      vertex -5.300000e+001  5.875000e+001  2.000000e+000
      vertex -5.423744e+001 -5.926256e+001  2.000000e+000
      vertex -5.300000e+001 -5.875000e+001  2.000000e+000
    endloop
  endfacet
  facet normal  0.000000e+000  0.000000e+000  1.000000e+000
    outer loop
      vertex -5.300000e+001  5.875000e+001  2.000000e+000
      vertex -5.300000e+001 -5.875000e+001  2.000000e+000
      vertex -4.700000e+001  5.175000e+001  2.000000e+000
    endloop
  endfacet
  facet normal  0.000000e+000  0.000000e+000  1.000000e+000
    outer loop
      vertex -5.300000e+001  5.875000e+001  2.000000e+000
      vertex -4.700000e+001  5.175000e+001  2.000000e+000
      vertex -4.648744e+001  5.298744e+001  2.000000e+000
    endloop
  endfacet
  facet normal  0.000000e+000  0.000000e+000  1.000000e+000
    outer loop
      vertex -5.300000e+001  5.875000e+001  2.000000e+000
      vertex -4.648744e+001  5.298744e+001  2.000000e+000
      vertex -4.525000e+001  5.350000e+001  2.000000e+000
    endloop
  endfacet
  facet normal  0.000000e+000  0.000000e+000  1.000000e+000
    outer loop
      vertex  4.525000e+001  5.350000e+001  2.000000e+000
      vertex  4.648744e+001  5.298744e+001  2.000000e+000
      vertex  5.300000e+001  5.875000e+001  2.000000e+000
    endloop
  endfacet
  facet normal  0.000000e+000  0.000000e+000  1.000000e+000
    outer loop
      vertex  4.525000e+001  5.350000e+001  2.000000e+000
      vertex  5.300000e+001  5.875000e+001  2.000000e+000
      vertex  5.176256e+001  5.926256e+001  2.000000e+000
    endloop
  endfacet
  facet normal  0.000000e+000  0.000000e+000  1.000000e+000
    outer loop
      vertex  4.525000e+001  5.350000e+001  2.000000e+000
      vertex  5.176256e+001  5.926256e+001  2.000000e+000
      vertex  5.125000e+001  6.050000e+001  2.000000e+000
    endloop
  endfacet
  facet normal  0.000000e+000  0.000000e+000  1.000000e+000
    outer loop
      vertex  4.525000e+001  5.350000e+001  2.000000e+000
      vertex  5.125000e+001  6.050000e+001  2.000000e+000
      vertex  5.176256e+001  6.173744e+001  2.000000e+000
    endloop
  endfacet
  facet normal  0.000000e+000  0.000000e+000  1.000000e+000
    outer loop
      vertex  5.300000e+001 -5.875000e+001  2.000000e+000
      vertex  5.423744e+001 -5.926256e+001  2.000000e+000
      vertex  5.300000e+001  5.875000e+001  2.000000e+000
    endloop
  endfacet
  facet normal  0.000000e+000  0.000000e+000  1.000000e+000
    outer loop
      vertex  5.300000e+001 -5.875000e+001  2.000000e+000
      vertex  5.300000e+001  5.875000e+001  2.000000e+000
      vertex  4.700000e+001  5.175000e+001  2.000000e+000
    endloop
  endfacet
  facet normal  0.000000e+000  0.000000e+000  1.000000e+000
    outer loop
      vertex  5.300000e+001 -5.875000e+001  2.000000e+000
      vertex  4.700000e+001  5.175000e+001  2.000000e+000
      vertex  4.648744e+001  5.051256e+001  2.000000e+000
    endloop
  endfacet
  facet normal  0.000000e+000  0.000000e+000  1.000000e+000
    outer loop
      vertex  5.300000e+001 -5.875000e+001  2.000000e+000
      vertex  4.648744e+001  5.051256e+001  2.000000e+000
      vertex  4.525000e+001  5.000000e+001  2.000000e+000
    endloop
  endfacet
  facet normal  0.000000e+000  0.000000e+000  1.000000e+000
    outer loop
      vertex  5.300000e+001 -5.875000e+001  2.000000e+000
      vertex  4.525000e+001  5.000000e+001  2.000000e+000
      vertex  4.648744e+001 -5.051256e+001  2.000000e+000
    endloop
  endfacet
  facet normal  0.000000e+000  0.000000e+000  1.000000e+000
    outer loop
      vertex  5.300000e+001 -5.875000e+001  2.000000e+000
      vertex  4.648744e+001 -5.051256e+001  2.000000e+000
      vertex  4.700000e+001 -5.175000e+001  2.000000e+000
    endloop
  endfacet
  facet normal  0.000000e+000  0.000000e+000  1.000000e+000
    outer loop
      vertex  5.300000e+001 -5.875000e+001  2.000000e+000
      vertex  4.700000e+001 -5.175000e+001  2.000000e+000
      vertex  4.648744e+001 -5.298744e+001  2.000000e+000
    endloop
  endfacet
  facet normal  0.000000e+000  0.000000e+000  1.000000e+000
    outer loop
      vertex  5.300000e+001 -5.875000e+001  2.000000e+000
      vertex  4.648744e+001 -5.298744e+001  2.000000e+000
      vertex  4.525000e+001 -5.350000e+001  2.000000e+000
    endloop
  endfacet
  facet normal  0.000000e+000  0.000000e+000  1.000000e+000
    outer loop
      vertex  5.300000e+001 -5.875000e+001  2.000000e+000
      vertex  4.525000e+001 -5.350000e+001  2.000000e+000
      vertex  5.176256e+001 -5.926256e+001  2.000000e+000
    endloop
  endfacet
  facet normal  0.000000e+000  0.000000e+000  1.000000e+000
    outer loop
      vertex  5.300000e+001  6.225000e+001  2.000000e+000
      vertex  6.000000e+001  6.250000e+001  2.000000e+000
      vertex  5.933013e+001  6.500000e+001  2.000000e+000
    endloop
  endfacet
  facet normal  0.000000e+000  0.000000e+000  1.000000e+000
    outer loop
      vertex  5.300000e+001  6.225000e+001  2.000000e+000
      vertex  5.933013e+001  6.500000e+001  2.000000e+000
      vertex  5.750000e+001  6.683012e+001  2.000000e+000
    endloop
  endfacet
  facet normal  0.000000e+000  0.000000e+000  1.000000e+000
    outer loop
      vertex  5.300000e+001  6.225000e+001  2.000000e+000
      vertex  5.750000e+001  6.683012e+001  2.000000e+000
      vertex  5.500000e+001  6.750000e+001  2.000000e+000
    endloop
  endfacet
  facet normal  0.000000e+000  0.000000e+000  1.000000e+000
    outer loop
      vertex  6.000000e+001 -6.250000e+001  2.000000e+000
      vertex  5.475000e+001  6.050000e+001  2.000000e+000
      vertex  5.423744e+001  5.926256e+001  2.000000e+000
    endloop
  endfacet
  facet normal  0.000000e+000  0.000000e+000  1.000000e+000
    outer loop
      vertex  6.000000e+001 -6.250000e+001  2.000000e+000
      vertex  5.423744e+001  5.926256e+001  2.000000e+000
      vertex  5.300000e+001  5.875000e+001  2.000000e+000
    endloop
  endfacet
  facet normal  0.000000e+000  0.000000e+000  1.000000e+000
    outer loop
      vertex  6.000000e+001 -6.250000e+001  2.000000e+000
      vertex  5.300000e+001  5.875000e+001  2.000000e+000
      vertex  5.423744e+001 -5.926256e+001  2.000000e+000
    endloop
  endfacet
  facet normal  0.000000e+000  0.000000e+000  1.000000e+000
    outer loop
      vertex  6.000000e+001 -6.250000e+001  2.000000e+000
      vertex  5.423744e+001 -5.926256e+001  2.000000e+000
      vertex  5.475000e+001 -6.050000e+001  2.000000e+000
    endloop
  endfacet
  facet normal  0.000000e+000  0.000000e+000  1.000000e+000
    outer loop
      vertex  6.000000e+001 -6.250000e+001  2.000000e+000
      vertex  5.475000e+001 -6.050000e+001  2.000000e+000
      vertex  5.423744e+001 -6.173744e+001  2.000000e+000
    endloop
  endfacet
  facet normal  0.000000e+000  0.000000e+000  1.000000e+000
    outer loop
      vertex  6.000000e+001 -6.250000e+001  2.000000e+000
      vertex  5.423744e+001 -6.173744e+001  2.000000e+000
      vertex  5.300000e+001 -6.225000e+001  2.000000e+000
    endloop
  endfacet
  facet normal  0.000000e+000  0.000000e+000  1.000000e+000
    outer loop
      vertex  4.525000e+001  5.350000e+001  2.000000e+000
      vertex -4.525000e+001  5.350000e+001  2.000000e+000
      vertex  4.401256e+001  5.298744e+001  2.000000e+000
    endloop
  endfacet
  facet normal  0.000000e+000  0.000000e+000  1.000000e+000
    outer loop
      vertex  4.401256e+001  5.298744e+001  2.000000e+000
      vertex -4.525000e+001  5.350000e+001  2.000000e+000
      vertex -4.401256e+001  5.298744e+001  2.000000e+000
    endloop
  endfacet
  facet normal  0.000000e+000  0.000000e+000  1.000000e+000
    outer loop
      vertex  4.401256e+001  5.298744e+001  2.000000e+000
      vertex -4.401256e+001  5.298744e+001  2.000000e+000
      vertex  4.350000e+001  5.175000e+001  2.000000e+000
    endloop
  endfacet
  facet normal  0.000000e+000  0.000000e+000  1.000000e+000
    outer loop
      vertex  4.350000e+001  5.175000e+001  2.000000e+000
      vertex -4.401256e+001  5.298744e+001  2.000000e+000
      vertex -4.350000e+001  5.175000e+001  2.000000e+000
    endloop
  endfacet
  facet normal  0.000000e+000  0.000000e+000  1.000000e+000
    outer loop
      vertex  4.350000e+001  5.175000e+001  2.000000e+000
      vertex -4.350000e+001  5.175000e+001  2.000000e+000
      vertex  4.401256e+001  5.051256e+001  2.000000e+000
    endloop
  endfacet
  facet normal  0.000000e+000  0.000000e+000  1.000000e+000
    outer loop
      vertex  4.401256e+001  5.051256e+001  2.000000e+000
      vertex -4.350000e+001  5.175000e+001  2.000000e+000
      vertex -4.401256e+001  5.051256e+001  2.000000e+000
    endloop
  endfacet
  facet normal  0.000000e+000  0.000000e+000  1.000000e+000
    outer loop
      vertex  4.401256e+001  5.051256e+001  2.000000e+000
      vertex -4.401256e+001  5.051256e+001  2.000000e+000
      vertex  4.525000e+001  5.000000e+001  2.000000e+000
    endloop
  endfacet
  facet normal  0.000000e+000  0.000000e+000  1.000000e+000
    outer loop
      vertex  4.525000e+001  5.000000e+001  2.000000e+000
      vertex -4.401256e+001  5.051256e+001  2.000000e+000
      vertex -4.525000e+001  5.000000e+001  2.000000e+000
    endloop
  endfacet
  facet normal  0.000000e+000  0.000000e+000  1.000000e+000
    outer loop
      vertex  4.525000e+001  5.000000e+001  2.000000e+000
      vertex -4.525000e+001  5.000000e+001  2.000000e+000
      vertex  4.525000e+001 -5.000000e+001  2.000000e+000
    endloop
  endfacet
  facet normal  0.000000e+000  0.000000e+000  1.000000e+000
    outer loop
      vertex  4.525000e+001 -5.000000e+001  2.000000e+000
      vertex -4.525000e+001  5.000000e+001  2.000000e+000
      vertex -4.525000e+001 -5.000000e+001  2.000000e+000
    endloop
  endfacet
  facet normal  0.000000e+000  0.000000e+000  1.000000e+000
    outer loop
      vertex  4.525000e+001 -5.000000e+001  2.000000e+000
      vertex -4.525000e+001 -5.000000e+001  2.000000e+000
      vertex  4.401256e+001 -5.051256e+001  2.000000e+000
    endloop
  endfacet
  facet normal  0.000000e+000  0.000000e+000  1.000000e+000
    outer loop
      vertex  4.401256e+001 -5.051256e+001  2.000000e+000
      vertex -4.525000e+001 -5.000000e+001  2.000000e+000
      vertex -4.401256e+001 -5.051256e+001  2.000000e+000
    endloop
  endfacet
  facet normal  0.000000e+000  0.000000e+000  1.000000e+000
    outer loop
      vertex  4.401256e+001 -5.051256e+001  2.000000e+000
      vertex -4.401256e+001 -5.051256e+001  2.000000e+000
      vertex  4.350000e+001 -5.175000e+001  2.000000e+000
    endloop
  endfacet
  facet normal  0.000000e+000  0.000000e+000  1.000000e+000
    outer loop
      vertex  4.350000e+001 -5.175000e+001  2.000000e+000
      vertex -4.401256e+001 -5.051256e+001  2.000000e+000
      vertex -4.350000e+001 -5.175000e+001  2.000000e+000
    endloop
  endfacet
  facet normal  0.000000e+000  0.000000e+000  1.000000e+000
    outer loop
      vertex  4.350000e+001 -5.175000e+001  2.000000e+000
      vertex -4.350000e+001 -5.175000e+001  2.000000e+000
      vertex  4.401256e+001 -5.298744e+001  2.000000e+000
    endloop
  endfacet
  facet normal  0.000000e+000  0.000000e+000  1.000000e+000
    outer loop
      vertex  4.401256e+001 -5.298744e+001  2.000000e+000
      vertex -4.350000e+001 -5.175000e+001  2.000000e+000
      vertex -4.401256e+001 -5.298744e+001  2.000000e+000
    endloop
  endfacet
  facet normal  0.000000e+000  0.000000e+000  1.000000e+000
    outer loop
      vertex  4.401256e+001 -5.298744e+001  2.000000e+000
      vertex -4.401256e+001 -5.298744e+001  2.000000e+000
      vertex  4.525000e+001 -5.350000e+001  2.000000e+000
    endloop
  endfacet
  facet normal  0.000000e+000  0.000000e+000  1.000000e+000
    outer loop
      vertex  4.525000e+001 -5.350000e+001  2.000000e+000
      vertex -4.401256e+001 -5.298744e+001  2.000000e+000
      vertex -4.525000e+001 -5.350000e+001  2.000000e+000
    endloop
  endfacet
  facet normal  0.000000e+000  0.000000e+000 -1.000000e+000
    outer loop
      vertex  4.648744e+001  5.298744e+001  0.000000e+000
      vertex  5.300000e+001  5.875000e+001  0.000000e+000
      vertex  4.700000e+001  5.175000e+001  0.000000e+000
    endloop
  endfacet
  facet normal  0.000000e+000  0.000000e+000 -1.000000e+000
    outer loop
      vertex -5.176256e+001 -5.926256e+001  0.000000e+000
      vertex -4.525000e+001 -5.350000e+001  0.000000e+000
      vertex -5.125000e+001 -6.050000e+001  0.000000e+000
    endloop
  endfacet
  facet normal  0.000000e+000  0.000000e+000 -1.000000e+000
    outer loop
      vertex -4.525000e+001 -5.350000e+001  0.000000e+000
      vertex -5.176256e+001 -6.173744e+001  0.000000e+000
      vertex -5.125000e+001 -6.050000e+001  0.000000e+000
    endloop
  endfacet
  facet normal  0.000000e+000  0.000000e+000 -1.000000e+000
    outer loop
      vertex -5.750000e+001 -6.683012e+001  0.000000e+000
      vertex -5.933013e+001 -6.500000e+001  0.000000e+000
      vertex -6.000000e+001 -6.250000e+001  0.000000e+000
    endloop
  endfacet
  facet normal  0.000000e+000  0.000000e+000 -1.000000e+000
    outer loop
      vertex  4.525000e+001 -5.350000e+001  0.000000e+000
      vertex  5.176256e+001 -5.926256e+001  0.000000e+000
      vertex  5.125000e+001 -6.050000e+001  0.000000e+000
    endloop
  endfacet
  facet normal  0.000000e+000  0.000000e+000 -1.000000e+000
    outer loop
      vertex -4.525000e+001  5.000000e+001  0.000000e+000
      vertex -4.525000e+001 -5.000000e+001  0.000000e+000
      vertex -4.648744e+001 -5.051256e+001  0.000000e+000
    endloop
  endfacet
  facet normal  0.000000e+000  0.000000e+000 -1.000000e+000
    outer loop
      vertex  4.525000e+001 -5.000000e+001  0.000000e+000
      vertex  4.525000e+001  5.000000e+001  0.000000e+000
      vertex  4.648744e+001 -5.051256e+001  0.000000e+000
    endloop
  endfacet
  facet normal  0.000000e+000  0.000000e+000 -1.000000e+000
    outer loop
      vertex  6.000000e+001  6.250000e+001  0.000000e+000
      vertex  6.000000e+001 -6.250000e+001  0.000000e+000
      vertex  5.475000e+001  6.050000e+001  0.000000e+000
    endloop
  endfacet
  facet normal  0.000000e+000  0.000000e+000 -1.000000e+000
    outer loop
      vertex  6.000000e+001  6.250000e+001  0.000000e+000
      vertex  5.475000e+001  6.050000e+001  0.000000e+000
      vertex  5.423744e+001  6.173744e+001  0.000000e+000
    endloop
  endfacet
  facet normal  0.000000e+000  0.000000e+000 -1.000000e+000
    outer loop
      vertex  6.000000e+001  6.250000e+001  0.000000e+000
      vertex  5.423744e+001  6.173744e+001  0.000000e+000
      vertex  5.300000e+001  6.225000e+001  0.000000e+000
    endloop
  endfacet
  facet normal  0.000000e+000  0.000000e+000 -1.000000e+000
    outer loop
      vertex -5.500000e+001 -6.750000e+001  0.000000e+000
      vertex -5.750000e+001 -6.683012e+001  0.000000e+000
      vertex -6.000000e+001 -6.250000e+001  0.000000e+000
    endloop
  endfacet
  facet normal  0.000000e+000  0.000000e+000 -1.000000e+000
    outer loop
      vertex -5.500000e+001 -6.750000e+001  0.000000e+000
      vertex -6.000000e+001 -6.250000e+001  0.000000e+000
      vertex -5.300000e+001 -6.225000e+001  0.000000e+000
    endloop
  endfacet
  facet normal  0.000000e+000  0.000000e+000 -1.000000e+000
    outer loop
      vertex -5.500000e+001 -6.750000e+001  0.000000e+000
      vertex -5.300000e+001 -6.225000e+001  0.000000e+000
      vertex -5.176256e+001 -6.173744e+001  0.000000e+000
    endloop
  endfacet
  facet normal  0.000000e+000  0.000000e+000 -1.000000e+000
    outer loop
      vertex -5.500000e+001 -6.750000e+001  0.000000e+000
      vertex -5.176256e+001 -6.173744e+001  0.000000e+000
      vertex -4.525000e+001 -5.350000e+001  0.000000e+000
    endloop
  endfacet
  facet normal  0.000000e+000  0.000000e+000 -1.000000e+000
    outer loop
      vertex -5.500000e+001 -6.750000e+001  0.000000e+000
      vertex -4.525000e+001 -5.350000e+001  0.000000e+000
      vertex  4.525000e+001 -5.350000e+001  0.000000e+000
    endloop
  endfacet
  facet normal  0.000000e+000  0.000000e+000 -1.000000e+000
    outer loop
      vertex -5.500000e+001 -6.750000e+001  0.000000e+000
      vertex  4.525000e+001 -5.350000e+001  0.000000e+000
      vertex  5.125000e+001 -6.050000e+001  0.000000e+000
    endloop
  endfacet
  facet normal  0.000000e+000  0.000000e+000 -1.000000e+000
    outer loop
      vertex -5.500000e+001 -6.750000e+001  0.000000e+000
      vertex  5.125000e+001 -6.050000e+001  0.000000e+000
      vertex  5.176256e+001 -6.173744e+001  0.000000e+000
    endloop
  endfacet
  facet normal  0.000000e+000  0.000000e+000 -1.000000e+000
    outer loop
      vertex -5.500000e+001 -6.750000e+001  0.000000e+000
      vertex  5.176256e+001 -6.173744e+001  0.000000e+000
      vertex  5.300000e+001 -6.225000e+001  0.000000e+000
    endloop
  endfacet
  facet normal  0.000000e+000  0.000000e+000 -1.000000e+000
    outer loop
      vertex -5.500000e+001 -6.750000e+001  0.000000e+000
      vertex  5.300000e+001 -6.225000e+001  0.000000e+000
      vertex  5.500000e+001 -6.750000e+001  0.000000e+000
    endloop
  endfacet
  facet normal  0.000000e+000  0.000000e+000 -1.000000e+000
    outer loop
      vertex  5.300000e+001 -6.225000e+001  0.000000e+000
      vertex  6.000000e+001 -6.250000e+001  0.000000e+000
      vertex  5.933013e+001 -6.500000e+001  0.000000e+000
    endloop
  endfacet
  facet normal  0.000000e+000  0.000000e+000 -1.000000e+000
    outer loop
      vertex  5.300000e+001 -6.225000e+001  0.000000e+000
      vertex  5.933013e+001 -6.500000e+001  0.000000e+000
      vertex  5.750000e+001 -6.683012e+001  0.000000e+000
    endloop
  endfacet
  facet normal  0.000000e+000  0.000000e+000 -1.000000e+000
    outer loop
      vertex  5.300000e+001 -6.225000e+001  0.000000e+000
      vertex  5.750000e+001 -6.683012e+001  0.000000e+000
      vertex  5.500000e+001 -6.750000e+001  0.000000e+000
    endloop
  endfacet
  facet normal  0.000000e+000  0.000000e+000 -1.000000e+000
    outer loop
      vertex -5.500000e+001  6.750000e+001  0.000000e+000
      vertex  5.500000e+001  6.750000e+001  0.000000e+000
      vertex  5.300000e+001  6.225000e+001  0.000000e+000
    endloop
  endfacet
  facet normal  0.000000e+000  0.000000e+000 -1.000000e+000
    outer loop
      vertex -5.500000e+001  6.750000e+001  0.000000e+000
      vertex  5.300000e+001  6.225000e+001  0.000000e+000
      vertex  5.176256e+001  6.173744e+001  0.000000e+000
    endloop
  endfacet
  facet normal  0.000000e+000  0.000000e+000 -1.000000e+000
    outer loop
      vertex -5.500000e+001  6.750000e+001  0.000000e+000
      vertex  5.176256e+001  6.173744e+001  0.000000e+000
      vertex  4.525000e+001  5.350000e+001  0.000000e+000
    endloop
  endfacet
  facet normal  0.000000e+000  0.000000e+000 -1.000000e+000
    outer loop
      vertex -5.500000e+001  6.750000e+001  0.000000e+000
      vertex  4.525000e+001  5.350000e+001  0.000000e+000
      vertex -4.525000e+001  5.350000e+001  0.000000e+000
    endloop
  endfacet
  facet normal  0.000000e+000  0.000000e+000 -1.000000e+000
    outer loop
      vertex -5.500000e+001  6.750000e+001  0.000000e+000
      vertex -4.525000e+001  5.350000e+001  0.000000e+000
      vertex -5.176256e+001  6.173744e+001  0.000000e+000
    endloop
  endfacet
  facet normal  0.000000e+000  0.000000e+000 -1.000000e+000
    outer loop
      vertex -5.500000e+001  6.750000e+001  0.000000e+000
      vertex -5.176256e+001  6.173744e+001  0.000000e+000
      vertex -5.300000e+001  6.225000e+001  0.000000e+000
    endloop
  endfacet
  facet normal  0.000000e+000  0.000000e+000 -1.000000e+000
    outer loop
      vertex -5.500000e+001  6.750000e+001  0.000000e+000
      vertex -5.300000e+001  6.225000e+001  0.000000e+000
      vertex -5.750000e+001  6.683012e+001  0.000000e+000
    endloop
  endfacet
  facet normal  0.000000e+000  0.000000e+000 -1.000000e+000
    outer loop
      vertex -6.000000e+001 -6.250000e+001  0.000000e+000
      vertex -5.475000e+001  6.050000e+001  0.000000e+000
      vertex -5.423744e+001  5.926256e+001  0.000000e+000
    endloop
  endfacet
  facet normal  0.000000e+000  0.000000e+000 -1.000000e+000
    outer loop
      vertex -6.000000e+001 -6.250000e+001  0.000000e+000
      vertex -5.423744e+001  5.926256e+001  0.000000e+000
      vertex -5.300000e+001  5.875000e+001  0.000000e+000
    endloop
  endfacet
  facet normal  0.000000e+000  0.000000e+000 -1.000000e+000
    outer loop
      vertex -6.000000e+001 -6.250000e+001  0.000000e+000
      vertex -5.300000e+001  5.875000e+001  0.000000e+000
      vertex -5.423744e+001 -5.926256e+001  0.000000e+000
    endloop
  endfacet
  facet normal  0.000000e+000  0.000000e+000 -1.000000e+000
    outer loop
      vertex -6.000000e+001 -6.250000e+001  0.000000e+000
      vertex -5.423744e+001 -5.926256e+001  0.000000e+000
      vertex -5.475000e+001 -6.050000e+001  0.000000e+000
    endloop
  endfacet
  facet normal  0.000000e+000  0.000000e+000 -1.000000e+000
    outer loop
      vertex -6.000000e+001 -6.250000e+001  0.000000e+000
      vertex -5.475000e+001 -6.050000e+001  0.000000e+000
      vertex -5.423744e+001 -6.173744e+001  0.000000e+000
    endloop
  endfacet
  facet normal  0.000000e+000  0.000000e+000 -1.000000e+000
    outer loop
      vertex -6.000000e+001 -6.250000e+001  0.000000e+000
      vertex -5.423744e+001 -6.173744e+001  0.000000e+000
      vertex -5.300000e+001 -6.225000e+001  0.000000e+000
    endloop
  endfacet
  facet normal  0.000000e+000  0.000000e+000 -1.000000e+000
    outer loop
      vertex -6.000000e+001  6.250000e+001  0.000000e+000
      vertex -5.933013e+001  6.500000e+001  0.000000e+000
      vertex -5.750000e+001  6.683012e+001  0.000000e+000
    endloop
  endfacet
  facet normal  0.000000e+000  0.000000e+000 -1.000000e+000
    outer loop
      vertex -6.000000e+001  6.250000e+001  0.000000e+000
      vertex -5.750000e+001  6.683012e+001  0.000000e+000
      vertex -5.300000e+001  6.225000e+001  0.000000e+000
    endloop
  endfacet
  facet normal  0.000000e+000  0.000000e+000 -1.000000e+000
    outer loop
      vertex -6.000000e+001  6.250000e+001  0.000000e+000
      vertex -5.300000e+001  6.225000e+001  0.000000e+000
      vertex -5.423744e+001  6.173744e+001  0.000000e+000
    endloop
  endfacet
  facet normal  0.000000e+000  0.000000e+000 -1.000000e+000
    outer loop
      vertex -6.000000e+001  6.250000e+001  0.000000e+000
      vertex -5.423744e+001  6.173744e+001  0.000000e+000
      vertex -5.475000e+001  6.050000e+001  0.000000e+000
    endloop
  endfacet
  facet normal  0.000000e+000  0.000000e+000 -1.000000e+000
    outer loop
      vertex -6.000000e+001  6.250000e+001  0.000000e+000
      vertex -5.475000e+001  6.050000e+001  0.000000e+000
      vertex -6.000000e+001 -6.250000e+001  0.000000e+000
    endloop
  endfacet
  facet normal  0.000000e+000  0.000000e+000 -1.000000e+000
    outer loop
      vertex -4.525000e+001  5.350000e+001  0.000000e+000
      vertex -5.300000e+001  5.875000e+001  0.000000e+000
      vertex -5.176256e+001  5.926256e+001  0.000000e+000
    endloop
  endfacet
  facet normal  0.000000e+000  0.000000e+000 -1.000000e+000
    outer loop
      vertex -4.525000e+001  5.350000e+001  0.000000e+000
      vertex -5.176256e+001  5.926256e+001  0.000000e+000
      vertex -5.125000e+001  6.050000e+001  0.000000e+000
    endloop
  endfacet
  facet normal  0.000000e+000  0.000000e+000 -1.000000e+000
    outer loop
      vertex -4.525000e+001  5.350000e+001  0.000000e+000
      vertex -5.125000e+001  6.050000e+001  0.000000e+000
      vertex -5.176256e+001  6.173744e+001  0.000000e+000
    endloop
  endfacet
  facet normal  0.000000e+000  0.000000e+000 -1.000000e+000
    outer loop
      vertex -5.300000e+001 -5.875000e+001  0.000000e+000
      vertex -4.700000e+001  5.175000e+001  0.000000e+000
      vertex -4.648744e+001  5.051256e+001  0.000000e+000
    endloop
  endfacet
  facet normal  0.000000e+000  0.000000e+000 -1.000000e+000
    outer loop
      vertex -5.300000e+001 -5.875000e+001  0.000000e+000
      vertex -4.648744e+001  5.051256e+001  0.000000e+000
      vertex -4.525000e+001  5.000000e+001  0.000000e+000
    endloop
  endfacet
  facet normal  0.000000e+000  0.000000e+000 -1.000000e+000
    outer loop
      vertex -5.300000e+001 -5.875000e+001  0.000000e+000
      vertex -4.525000e+001  5.000000e+001  0.000000e+000
      vertex -4.648744e+001 -5.051256e+001  0.000000e+000
    endloop
  endfacet
  facet normal  0.000000e+000  0.000000e+000 -1.000000e+000
    outer loop
      vertex -5.300000e+001 -5.875000e+001  0.000000e+000
      vertex -4.648744e+001 -5.051256e+001  0.000000e+000
      vertex -4.700000e+001 -5.175000e+001  0.000000e+000
    endloop
  endfacet
  facet normal  0.000000e+000  0.000000e+000 -1.000000e+000
    outer loop
      vertex -5.300000e+001 -5.875000e+001  0.000000e+000
      vertex -4.700000e+001 -5.175000e+001  0.000000e+000
      vertex -4.648744e+001 -5.298744e+001  0.000000e+000
    endloop
  endfacet
  facet normal  0.000000e+000  0.000000e+000 -1.000000e+000
    outer loop
      vertex -5.300000e+001 -5.875000e+001  0.000000e+000
      vertex -4.648744e+001 -5.298744e+001  0.000000e+000
      vertex -4.525000e+001 -5.350000e+001  0.000000e+000
    endloop
  endfacet
  facet normal  0.000000e+000  0.000000e+000 -1.000000e+000
    outer loop
      vertex -5.300000e+001 -5.875000e+001  0.000000e+000
      vertex -4.525000e+001 -5.350000e+001  0.000000e+000
      vertex -5.176256e+001 -5.926256e+001  0.000000e+000
    endloop
  endfacet
  facet normal  0.000000e+000  0.000000e+000 -1.000000e+000
    outer loop
      vertex -5.300000e+001  5.875000e+001  0.000000e+000
      vertex -4.525000e+001  5.350000e+001  0.000000e+000
      vertex -4.648744e+001  5.298744e+001  0.000000e+000
    endloop
  endfacet
  facet normal  0.000000e+000  0.000000e+000 -1.000000e+000
    outer loop
      vertex -5.300000e+001  5.875000e+001  0.000000e+000
      vertex -4.648744e+001  5.298744e+001  0.000000e+000
      vertex -4.700000e+001  5.175000e+001  0.000000e+000
    endloop
  endfacet
  facet normal  0.000000e+000  0.000000e+000 -1.000000e+000
    outer loop
      vertex -5.300000e+001  5.875000e+001  0.000000e+000
      vertex -4.700000e+001  5.175000e+001  0.000000e+000
      vertex -5.300000e+001 -5.875000e+001  0.000000e+000
    endloop
  endfacet
  facet normal  0.000000e+000  0.000000e+000 -1.000000e+000
    outer loop
      vertex -5.300000e+001  5.875000e+001  0.000000e+000
      vertex -5.300000e+001 -5.875000e+001  0.000000e+000
      vertex -5.423744e+001 -5.926256e+001  0.000000e+000
    endloop
  endfacet
  facet normal  0.000000e+000  0.000000e+000 -1.000000e+000
    outer loop
      vertex  4.525000e+001  5.350000e+001  0.000000e+000
      vertex  5.176256e+001  6.173744e+001  0.000000e+000
      vertex  5.125000e+001  6.050000e+001  0.000000e+000
    endloop
  endfacet
  facet normal  0.000000e+000  0.000000e+000 -1.000000e+000
    outer loop
      vertex  4.525000e+001  5.350000e+001  0.000000e+000
      vertex  5.125000e+001  6.050000e+001  0.000000e+000
      vertex  5.176256e+001  5.926256e+001  0.000000e+000
    endloop
  endfacet
  facet normal  0.000000e+000  0.000000e+000 -1.000000e+000
    outer loop
      vertex  4.525000e+001  5.350000e+001  0.000000e+000
      vertex  5.176256e+001  5.926256e+001  0.000000e+000
      vertex  5.300000e+001  5.875000e+001  0.000000e+000
    endloop
  endfacet
  facet normal  0.000000e+000  0.000000e+000 -1.000000e+000
    outer loop
      vertex  4.525000e+001  5.350000e+001  0.000000e+000
      vertex  5.300000e+001  5.875000e+001  0.000000e+000
      vertex  4.648744e+001  5.298744e+001  0.000000e+000
    endloop
  endfacet
  facet normal  0.000000e+000  0.000000e+000 -1.000000e+000
    outer loop
      vertex  5.300000e+001 -5.875000e+001  0.000000e+000
      vertex  5.176256e+001 -5.926256e+001  0.000000e+000
      vertex  4.525000e+001 -5.350000e+001  0.000000e+000
    endloop
  endfacet
  facet normal  0.000000e+000  0.000000e+000 -1.000000e+000
    outer loop
      vertex  5.300000e+001 -5.875000e+001  0.000000e+000
      vertex  4.525000e+001 -5.350000e+001  0.000000e+000
      vertex  4.648744e+001 -5.298744e+001  0.000000e+000
    endloop
  endfacet
  facet normal  0.000000e+000  0.000000e+000 -1.000000e+000
    outer loop
      vertex  5.300000e+001 -5.875000e+001  0.000000e+000
      vertex  4.648744e+001 -5.298744e+001  0.000000e+000
      vertex  4.700000e+001 -5.175000e+001  0.000000e+000
    endloop
  endfacet
  facet normal  0.000000e+000  0.000000e+000 -1.000000e+000
    outer loop
      vertex  5.300000e+001 -5.875000e+001  0.000000e+000
      vertex  4.700000e+001 -5.175000e+001  0.000000e+000
      vertex  4.648744e+001 -5.051256e+001  0.000000e+000
    endloop
  endfacet
  facet normal  0.000000e+000  0.000000e+000 -1.000000e+000
    outer loop
      vertex  5.300000e+001 -5.875000e+001  0.000000e+000
      vertex  4.648744e+001 -5.051256e+001  0.000000e+000
      vertex  4.525000e+001  5.000000e+001  0.000000e+000
    endloop
  endfacet
  facet normal  0.000000e+000  0.000000e+000 -1.000000e+000
    outer loop
      vertex  5.300000e+001 -5.875000e+001  0.000000e+000
      vertex  4.525000e+001  5.000000e+001  0.000000e+000
      vertex  4.648744e+001  5.051256e+001  0.000000e+000
    endloop
  endfacet
  facet normal  0.000000e+000  0.000000e+000 -1.000000e+000
    outer loop
      vertex  5.300000e+001 -5.875000e+001  0.000000e+000
      vertex  4.648744e+001  5.051256e+001  0.000000e+000
      vertex  4.700000e+001  5.175000e+001  0.000000e+000
    endloop
  endfacet
  facet normal  0.000000e+000  0.000000e+000 -1.000000e+000
    outer loop
      vertex  5.300000e+001 -5.875000e+001  0.000000e+000
      vertex  4.700000e+001  5.175000e+001  0.000000e+000
      vertex  5.300000e+001  5.875000e+001  0.000000e+000
    endloop
  endfacet
  facet normal  0.000000e+000  0.000000e+000 -1.000000e+000
    outer loop
      vertex  5.300000e+001 -5.875000e+001  0.000000e+000
      vertex  5.300000e+001  5.875000e+001  0.000000e+000
      vertex  5.423744e+001 -5.926256e+001  0.000000e+000
    endloop
  endfacet
  facet normal  0.000000e+000  0.000000e+000 -1.000000e+000
    outer loop
      vertex  5.300000e+001  6.225000e+001  0.000000e+000
      vertex  5.500000e+001  6.750000e+001  0.000000e+000
      vertex  5.750000e+001  6.683012e+001  0.000000e+000
    endloop
  endfacet
  facet normal  0.000000e+000  0.000000e+000 -1.000000e+000
    outer loop
      vertex  5.300000e+001  6.225000e+001  0.000000e+000
      vertex  5.750000e+001  6.683012e+001  0.000000e+000
      vertex  5.933013e+001  6.500000e+001  0.000000e+000
    endloop
  endfacet
  facet normal  0.000000e+000  0.000000e+000 -1.000000e+000
    outer loop
      vertex  5.300000e+001  6.225000e+001  0.000000e+000
      vertex  5.933013e+001  6.500000e+001  0.000000e+000
      vertex  6.000000e+001  6.250000e+001  0.000000e+000
    endloop
  endfacet
  facet normal  0.000000e+000  0.000000e+000 -1.000000e+000
    outer loop
      vertex  6.000000e+001 -6.250000e+001  0.000000e+000
      vertex  5.300000e+001 -6.225000e+001  0.000000e+000
      vertex  5.423744e+001 -6.173744e+001  0.000000e+000
    endloop
  endfacet
  facet normal  0.000000e+000  0.000000e+000 -1.000000e+000
    outer loop
      vertex  6.000000e+001 -6.250000e+001  0.000000e+000
      vertex  5.423744e+001 -6.173744e+001  0.000000e+000
      vertex  5.475000e+001 -6.050000e+001  0.000000e+000
    endloop
  endfacet
  facet normal  0.000000e+000  0.000000e+000 -1.000000e+000
    outer loop
      vertex  6.000000e+001 -6.250000e+001  0.000000e+000
      vertex  5.475000e+001 -6.050000e+001  0.000000e+000
      vertex  5.423744e+001 -5.926256e+001  0.000000e+000
    endloop
  endfacet
  facet normal  0.000000e+000  0.000000e+000 -1.000000e+000
    outer loop
      vertex  6.000000e+001 -6.250000e+001  0.000000e+000
      vertex  5.423744e+001 -5.926256e+001  0.000000e+000
      vertex  5.300000e+001  5.875000e+001  0.000000e+000
    endloop
  endfacet
  facet normal  0.000000e+000  0.000000e+000 -1.000000e+000
    outer loop
      vertex  6.000000e+001 -6.250000e+001  0.000000e+000
      vertex  5.300000e+001  5.875000e+001  0.000000e+000
      vertex  5.423744e+001  5.926256e+001  0.000000e+000
    endloop
  endfacet
  facet normal  0.000000e+000  0.000000e+000 -1.000000e+000
    outer loop
      vertex  6.000000e+001 -6.250000e+001  0.000000e+000
      vertex  5.423744e+001  5.926256e+001  0.000000e+000
      vertex  5.475000e+001  6.050000e+001  0.000000e+000
    endloop
  endfacet
  facet normal  0.000000e+000  0.000000e+000 -1.000000e+000
    outer loop
      vertex -4.525000e+001  5.350000e+001  0.000000e+000
      vertex  4.525000e+001  5.350000e+001  0.000000e+000
      vertex -4.401256e+001  5.298744e+001  0.000000e+000
    endloop
  endfacet
  facet normal  0.000000e+000  0.000000e+000 -1.000000e+000
    outer loop
      vertex -4.401256e+001  5.298744e+001  0.000000e+000
      vertex  4.525000e+001  5.350000e+001  0.000000e+000
      vertex  4.401256e+001  5.298744e+001  0.000000e+000
    endloop
  endfacet
  facet normal  0.000000e+000  0.000000e+000 -1.000000e+000
    outer loop
      vertex -4.401256e+001  5.298744e+001  0.000000e+000
      vertex  4.401256e+001  5.298744e+001  0.000000e+000
      vertex -4.350000e+001  5.175000e+001  0.000000e+000
    endloop
  endfacet
  facet normal  0.000000e+000  0.000000e+000 -1.000000e+000
    outer loop
      vertex -4.350000e+001  5.175000e+001  0.000000e+000
      vertex  4.401256e+001  5.298744e+001  0.000000e+000
      vertex  4.350000e+001  5.175000e+001  0.000000e+000
    endloop
  endfacet
  facet normal  0.000000e+000  0.000000e+000 -1.000000e+000
    outer loop
      vertex -4.350000e+001  5.175000e+001  0.000000e+000
      vertex  4.350000e+001  5.175000e+001  0.000000e+000
      vertex -4.401256e+001  5.051256e+001  0.000000e+000
    endloop
  endfacet
  facet normal  0.000000e+000  0.000000e+000 -1.000000e+000
    outer loop
      vertex -4.401256e+001  5.051256e+001  0.000000e+000
      vertex  4.350000e+001  5.175000e+001  0.000000e+000
      vertex  4.401256e+001  5.051256e+001  0.000000e+000
    endloop
  endfacet
  facet normal  0.000000e+000  0.000000e+000 -1.000000e+000
    outer loop
      vertex -4.401256e+001  5.051256e+001  0.000000e+000
      vertex  4.401256e+001  5.051256e+001  0.000000e+000
      vertex -4.525000e+001  5.000000e+001  0.000000e+000
    endloop
  endfacet
  facet normal  0.000000e+000  0.000000e+000 -1.000000e+000
    outer loop
      vertex -4.525000e+001  5.000000e+001  0.000000e+000
      vertex  4.401256e+001  5.051256e+001  0.000000e+000
      vertex  4.525000e+001  5.000000e+001  0.000000e+000
    endloop
  endfacet
  facet normal  0.000000e+000  0.000000e+000 -1.000000e+000
    outer loop
      vertex -4.525000e+001  5.000000e+001  0.000000e+000
      vertex  4.525000e+001  5.000000e+001  0.000000e+000
      vertex -4.525000e+001 -5.000000e+001  0.000000e+000
    endloop
  endfacet
  facet normal  0.000000e+000  0.000000e+000 -1.000000e+000
    outer loop
      vertex -4.525000e+001 -5.000000e+001  0.000000e+000
      vertex  4.525000e+001  5.000000e+001  0.000000e+000
      vertex  4.525000e+001 -5.000000e+001  0.000000e+000
    endloop
  endfacet
  facet normal  0.000000e+000  0.000000e+000 -1.000000e+000
    outer loop
      vertex -4.525000e+001 -5.000000e+001  0.000000e+000
      vertex  4.525000e+001 -5.000000e+001  0.000000e+000
      vertex -4.401256e+001 -5.051256e+001  0.000000e+000
    endloop
  endfacet
  facet normal  0.000000e+000  0.000000e+000 -1.000000e+000
    outer loop
      vertex -4.401256e+001 -5.051256e+001  0.000000e+000
      vertex  4.525000e+001 -5.000000e+001  0.000000e+000
      vertex  4.401256e+001 -5.051256e+001  0.000000e+000
    endloop
  endfacet
  facet normal  0.000000e+000  0.000000e+000 -1.000000e+000
    outer loop
      vertex -4.401256e+001 -5.051256e+001  0.000000e+000
      vertex  4.401256e+001 -5.051256e+001  0.000000e+000
      vertex -4.350000e+001 -5.175000e+001  0.000000e+000
    endloop
  endfacet
  facet normal  0.000000e+000  0.000000e+000 -1.000000e+000
    outer loop
      vertex -4.350000e+001 -5.175000e+001  0.000000e+000
      vertex  4.401256e+001 -5.051256e+001  0.000000e+000
      vertex  4.350000e+001 -5.175000e+001  0.000000e+000
    endloop
  endfacet
  facet normal  0.000000e+000  0.000000e+000 -1.000000e+000
    outer loop
      vertex -4.350000e+001 -5.175000e+001  0.000000e+000
      vertex  4.350000e+001 -5.175000e+001  0.000000e+000
      vertex -4.401256e+001 -5.298744e+001  0.000000e+000
    endloop
  endfacet
  facet normal  0.000000e+000  0.000000e+000 -1.000000e+000
    outer loop
      vertex -4.401256e+001 -5.298744e+001  0.000000e+000
      vertex  4.350000e+001 -5.175000e+001  0.000000e+000
      vertex  4.401256e+001 -5.298744e+001  0.000000e+000
    endloop
  endfacet
  facet normal  0.000000e+000  0.000000e+000 -1.000000e+000
    outer loop
      vertex -4.401256e+001 -5.298744e+001  0.000000e+000
      vertex  4.401256e+001 -5.298744e+001  0.000000e+000
      vertex -4.525000e+001 -5.350000e+001  0.000000e+000
    endloop
  endfacet
  facet normal  0.000000e+000  0.000000e+000 -1.000000e+000
    outer loop
      vertex -4.525000e+001 -5.350000e+001  0.000000e+000
      vertex  4.401256e+001 -5.298744e+001  0.000000e+000
      vertex  4.525000e+001 -5.350000e+001  0.000000e+000
    endloop
  endfacet
  facet normal -9.238800e-001  3.826822e-001  0.000000e+000
    outer loop
      vertex -5.125000e+001 -6.050000e+001  2.000000e+000
      vertex -5.125000e+001 -6.050000e+001  0.000000e+000
      vertex -5.176256e+001 -6.173744e+001  2.000000e+000
    endloop
  endfacet
  facet normal -9.238800e-001  3.826822e-001  0.000000e+000
    outer loop
      vertex -5.176256e+001 -6.173744e+001  2.000000e+000
      vertex -5.125000e+001 -6.050000e+001  0.000000e+000
      vertex -5.176256e+001 -6.173744e+001  0.000000e+000
    endloop
  endfacet
  facet normal -3.826822e-001  9.238800e-001  0.000000e+000
    outer loop
      vertex -5.176256e+001 -6.173744e+001  2.000000e+000
      vertex -5.176256e+001 -6.173744e+001  0.000000e+000
      vertex -5.300000e+001 -6.225000e+001  2.000000e+000
    endloop
  endfacet
  facet normal -3.826822e-001  9.238800e-001  0.000000e+000
    outer loop
      vertex -5.300000e+001 -6.225000e+001  2.000000e+000
      vertex -5.176256e+001 -6.173744e+001  0.000000e+000
      vertex -5.300000e+001 -6.225000e+001  0.000000e+000
    endloop
  endfacet
  facet normal  3.826822e-001  9.238800e-001  0.000000e+000
    outer loop
      vertex -5.300000e+001 -6.225000e+001  2.000000e+000
      vertex -5.300000e+001 -6.225000e+001  0.000000e+000
      vertex -5.423744e+001 -6.173744e+001  2.000000e+000
    endloop
  endfacet
  facet normal  3.826822e-001  9.238800e-001  0.000000e+000
    outer loop
      vertex -5.423744e+001 -6.173744e+001  2.000000e+000
      vertex -5.300000e+001 -6.225000e+001  0.000000e+000
      vertex -5.423744e+001 -6.173744e+001  0.000000e+000
    endloop
  endfacet
  facet normal  9.238800e-001  3.826822e-001  0.000000e+000
    outer loop
      vertex -5.423744e+001 -6.173744e+001  2.000000e+000
      vertex -5.423744e+001 -6.173744e+001  0.000000e+000
      vertex -5.475000e+001 -6.050000e+001  2.000000e+000
    endloop
  endfacet
  facet normal  9.238800e-001  3.826822e-001  0.000000e+000
    outer loop
      vertex -5.475000e+001 -6.050000e+001  2.000000e+000
      vertex -5.423744e+001 -6.173744e+001  0.000000e+000
      vertex -5.475000e+001 -6.050000e+001  0.000000e+000
    endloop
  endfacet
  facet normal  9.238800e-001 -3.826822e-001  0.000000e+000
    outer loop
      vertex -5.475000e+001 -6.050000e+001  2.000000e+000
      vertex -5.475000e+001 -6.050000e+001  0.000000e+000
      vertex -5.423744e+001 -5.926256e+001  2.000000e+000
    endloop
  endfacet
  facet normal  9.238800e-001 -3.826822e-001  0.000000e+000
    outer loop
      vertex -5.423744e+001 -5.926256e+001  2.000000e+000
      vertex -5.475000e+001 -6.050000e+001  0.000000e+000
      vertex -5.423744e+001 -5.926256e+001  0.000000e+000
    endloop
  endfacet
  facet normal  3.826822e-001 -9.238800e-001  0.000000e+000
    outer loop
      vertex -5.423744e+001 -5.926256e+001  2.000000e+000
      vertex -5.423744e+001 -5.926256e+001  0.000000e+000
      vertex -5.300000e+001 -5.875000e+001  2.000000e+000
    endloop
  endfacet
  facet normal  3.826822e-001 -9.238800e-001  0.000000e+000
    outer loop
      vertex -5.300000e+001 -5.875000e+001  2.000000e+000
      vertex -5.423744e+001 -5.926256e+001  0.000000e+000
      vertex -5.300000e+001 -5.875000e+001  0.000000e+000
    endloop
  endfacet
  facet normal -3.826822e-001 -9.238800e-001  0.000000e+000
    outer loop
      vertex -5.300000e+001 -5.875000e+001  2.000000e+000
      vertex -5.300000e+001 -5.875000e+001  0.000000e+000
      vertex -5.176256e+001 -5.926256e+001  2.000000e+000
    endloop
  endfacet
  facet normal -3.826822e-001 -9.238800e-001  0.000000e+000
    outer loop
      vertex -5.176256e+001 -5.926256e+001  2.000000e+000
      vertex -5.300000e+001 -5.875000e+001  0.000000e+000
      vertex -5.176256e+001 -5.926256e+001  0.000000e+000
    endloop
  endfacet
  facet normal -9.238800e-001 -3.826822e-001  0.000000e+000
    outer loop
      vertex -5.176256e+001 -5.926256e+001  2.000000e+000
      vertex -5.176256e+001 -5.926256e+001  0.000000e+000
      vertex -5.125000e+001 -6.050000e+001  2.000000e+000
    endloop
  endfacet
  facet normal -9.238800e-001 -3.826822e-001  0.000000e+000
    outer loop
      vertex -5.125000e+001 -6.050000e+001  2.000000e+000
      vertex -5.176256e+001 -5.926256e+001  0.000000e+000
      vertex -5.125000e+001 -6.050000e+001  0.000000e+000
    endloop
  endfacet
  facet normal  9.238800e-001 -3.826822e-001  0.000000e+000
    outer loop
      vertex  5.125000e+001 -6.050000e+001  2.000000e+000
      vertex  5.125000e+001 -6.050000e+001  0.000000e+000
      vertex  5.176256e+001 -5.926256e+001  2.000000e+000
    endloop
  endfacet
  facet normal  9.238800e-001 -3.826822e-001  0.000000e+000
    outer loop
      vertex  5.176256e+001 -5.926256e+001  2.000000e+000
      vertex  5.125000e+001 -6.050000e+001  0.000000e+000
      vertex  5.176256e+001 -5.926256e+001  0.000000e+000
    endloop
  endfacet
  facet normal  3.826822e-001 -9.238800e-001  0.000000e+000
    outer loop
      vertex  5.176256e+001 -5.926256e+001  2.000000e+000
      vertex  5.176256e+001 -5.926256e+001  0.000000e+000
      vertex  5.300000e+001 -5.875000e+001  2.000000e+000
    endloop
  endfacet
  facet normal  3.826822e-001 -9.238800e-001  0.000000e+000
    outer loop
      vertex  5.300000e+001 -5.875000e+001  2.000000e+000
      vertex  5.176256e+001 -5.926256e+001  0.000000e+000
      vertex  5.300000e+001 -5.875000e+001  0.000000e+000
    endloop
  endfacet
  facet normal -3.826822e-001 -9.238800e-001  0.000000e+000
    outer loop
      vertex  5.300000e+001 -5.875000e+001  2.000000e+000
      vertex  5.300000e+001 -5.875000e+001  0.000000e+000
      vertex  5.423744e+001 -5.926256e+001  2.000000e+000
    endloop
  endfacet
  facet normal -3.826822e-001 -9.238800e-001  0.000000e+000
    outer loop
      vertex  5.423744e+001 -5.926256e+001  2.000000e+000
      vertex  5.300000e+001 -5.875000e+001  0.000000e+000
      vertex  5.423744e+001 -5.926256e+001  0.000000e+000
    endloop
  endfacet
  facet normal -9.238800e-001 -3.826822e-001  0.000000e+000
    outer loop
      vertex  5.423744e+001 -5.926256e+001  2.000000e+000
      vertex  5.423744e+001 -5.926256e+001  0.000000e+000
      vertex  5.475000e+001 -6.050000e+001  2.000000e+000
    endloop
  endfacet
  facet normal -9.238800e-001 -3.826822e-001  0.000000e+000
    outer loop
      vertex  5.475000e+001 -6.050000e+001  2.000000e+000
      vertex  5.423744e+001 -5.926256e+001  0.000000e+000
      vertex  5.475000e+001 -6.050000e+001  0.000000e+000
    endloop
  endfacet
  facet normal -9.238800e-001  3.826822e-001  0.000000e+000
    outer loop
      vertex  5.475000e+001 -6.050000e+001  2.000000e+000
      vertex  5.475000e+001 -6.050000e+001  0.000000e+000
      vertex  5.423744e+001 -6.173744e+001  2.000000e+000
    endloop
  endfacet
  facet normal -9.238800e-001  3.826822e-001  0.000000e+000
    outer loop
      vertex  5.423744e+001 -6.173744e+001  2.000000e+000
      vertex  5.475000e+001 -6.050000e+001  0.000000e+000
      vertex  5.423744e+001 -6.173744e+001  0.000000e+000
    endloop
  endfacet
  facet normal -3.826822e-001  9.238800e-001  0.000000e+000
    outer loop
      vertex  5.423744e+001 -6.173744e+001  2.000000e+000
      vertex  5.423744e+001 -6.173744e+001  0.000000e+000
      vertex  5.300000e+001 -6.225000e+001  2.000000e+000
    endloop
  endfacet
  facet normal -3.826822e-001  9.238800e-001  0.000000e+000
    outer loop
      vertex  5.300000e+001 -6.225000e+001  2.000000e+000
      vertex  5.423744e+001 -6.173744e+001  0.000000e+000
      vertex  5.300000e+001 -6.225000e+001  0.000000e+000
    endloop
  endfacet
  facet normal  3.826822e-001  9.238800e-001  0.000000e+000
    outer loop
      vertex  5.300000e+001 -6.225000e+001  2.000000e+000
      vertex  5.300000e+001 -6.225000e+001  0.000000e+000
      vertex  5.176256e+001 -6.173744e+001  2.000000e+000
    endloop
  endfacet
  facet normal  3.826822e-001  9.238800e-001  0.000000e+000
    outer loop
      vertex  5.176256e+001 -6.173744e+001  2.000000e+000
      vertex  5.300000e+001 -6.225000e+001  0.000000e+000
      vertex  5.176256e+001 -6.173744e+001  0.000000e+000
    endloop
  endfacet
  facet normal  9.238800e-001  3.826822e-001  0.000000e+000
    outer loop
      vertex  5.176256e+001 -6.173744e+001  2.000000e+000
      vertex  5.176256e+001 -6.173744e+001  0.000000e+000
      vertex  5.125000e+001 -6.050000e+001  2.000000e+000
    endloop
  endfacet
  facet normal  9.238800e-001  3.826822e-001  0.000000e+000
    outer loop
      vertex  5.125000e+001 -6.050000e+001  2.000000e+000
      vertex  5.176256e+001 -6.173744e+001  0.000000e+000
      vertex  5.125000e+001 -6.050000e+001  0.000000e+000
    endloop
  endfacet
  facet normal -9.238800e-001  3.826822e-001  0.000000e+000
    outer loop
      vertex -5.125000e+001  6.050000e+001  2.000000e+000
      vertex -5.125000e+001  6.050000e+001  0.000000e+000
      vertex -5.176256e+001  5.926256e+001  2.000000e+000
    endloop
  endfacet
  facet normal -9.238800e-001  3.826822e-001  0.000000e+000
    outer loop
      vertex -5.176256e+001  5.926256e+001  2.000000e+000
      vertex -5.125000e+001  6.050000e+001  0.000000e+000
      vertex -5.176256e+001  5.926256e+001  0.000000e+000
    endloop
  endfacet
  facet normal -3.826822e-001  9.238800e-001  0.000000e+000
    outer loop
      vertex -5.176256e+001  5.926256e+001  2.000000e+000
      vertex -5.176256e+001  5.926256e+001  0.000000e+000
      vertex -5.300000e+001  5.875000e+001  2.000000e+000
    endloop
  endfacet
  facet normal -3.826822e-001  9.238800e-001  0.000000e+000
    outer loop
      vertex -5.300000e+001  5.875000e+001  2.000000e+000
      vertex -5.176256e+001  5.926256e+001  0.000000e+000
      vertex -5.300000e+001  5.875000e+001  0.000000e+000
    endloop
  endfacet
  facet normal  3.826822e-001  9.238800e-001  0.000000e+000
    outer loop
      vertex -5.300000e+001  5.875000e+001  2.000000e+000
      vertex -5.300000e+001  5.875000e+001  0.000000e+000
      vertex -5.423744e+001  5.926256e+001  2.000000e+000
    endloop
  endfacet
  facet normal  3.826822e-001  9.238800e-001  0.000000e+000
    outer loop
      vertex -5.423744e+001  5.926256e+001  2.000000e+000
      vertex -5.300000e+001  5.875000e+001  0.000000e+000
      vertex -5.423744e+001  5.926256e+001  0.000000e+000
    endloop
  endfacet
  facet normal  9.238800e-001  3.826822e-001  0.000000e+000
    outer loop
      vertex -5.423744e+001  5.926256e+001  2.000000e+000
      vertex -5.423744e+001  5.926256e+001  0.000000e+000
      vertex -5.475000e+001  6.050000e+001  2.000000e+000
    endloop
  endfacet
  facet normal  9.238800e-001  3.826822e-001  0.000000e+000
    outer loop
      vertex -5.475000e+001  6.050000e+001  2.000000e+000
      vertex -5.423744e+001  5.926256e+001  0.000000e+000
      vertex -5.475000e+001  6.050000e+001  0.000000e+000
    endloop
  endfacet
  facet normal  9.238800e-001 -3.826822e-001  0.000000e+000
    outer loop
      vertex -5.475000e+001  6.050000e+001  2.000000e+000
      vertex -5.475000e+001  6.050000e+001  0.000000e+000
      vertex -5.423744e+001  6.173744e+001  2.000000e+000
    endloop
  endfacet
  facet normal  9.238800e-001 -3.826822e-001  0.000000e+000
    outer loop
      vertex -5.423744e+001  6.173744e+001  2.000000e+000
      vertex -5.475000e+001  6.050000e+001  0.000000e+000
      vertex -5.423744e+001  6.173744e+001  0.000000e+000
    endloop
  endfacet
  facet normal  3.826822e-001 -9.238800e-001  0.000000e+000
    outer loop
      vertex -5.423744e+001  6.173744e+001  2.000000e+000
      vertex -5.423744e+001  6.173744e+001  0.000000e+000
      vertex -5.300000e+001  6.225000e+001  2.000000e+000
    endloop
  endfacet
  facet normal  3.826822e-001 -9.238800e-001  0.000000e+000
    outer loop
      vertex -5.300000e+001  6.225000e+001  2.000000e+000
      vertex -5.423744e+001  6.173744e+001  0.000000e+000
      vertex -5.300000e+001  6.225000e+001  0.000000e+000
    endloop
  endfacet
  facet normal -3.826822e-001 -9.238800e-001  0.000000e+000
    outer loop
      vertex -5.300000e+001  6.225000e+001  2.000000e+000
      vertex -5.300000e+001  6.225000e+001  0.000000e+000
      vertex -5.176256e+001  6.173744e+001  2.000000e+000
    endloop
  endfacet
  facet normal -3.826822e-001 -9.238800e-001  0.000000e+000
    outer loop
      vertex -5.176256e+001  6.173744e+001  2.000000e+000
      vertex -5.300000e+001  6.225000e+001  0.000000e+000
      vertex -5.176256e+001  6.173744e+001  0.000000e+000
    endloop
  endfacet
  facet normal -9.238800e-001 -3.826822e-001  0.000000e+000
    outer loop
      vertex -5.176256e+001  6.173744e+001  2.000000e+000
      vertex -5.176256e+001  6.173744e+001  0.000000e+000
      vertex -5.125000e+001  6.050000e+001  2.000000e+000
    endloop
  endfacet
  facet normal -9.238800e-001 -3.826822e-001  0.000000e+000
    outer loop
      vertex -5.125000e+001  6.050000e+001  2.000000e+000
      vertex -5.176256e+001  6.173744e+001  0.000000e+000
      vertex -5.125000e+001  6.050000e+001  0.000000e+000
    endloop
  endfacet
  facet normal  9.238800e-001 -3.826822e-001  0.000000e+000
    outer loop
      vertex  5.125000e+001  6.050000e+001  2.000000e+000
      vertex  5.125000e+001  6.050000e+001  0.000000e+000
      vertex  5.176256e+001  6.173744e+001  2.000000e+000
    endloop
  endfacet
  facet normal  9.238800e-001 -3.826822e-001  0.000000e+000
    outer loop
      vertex  5.176256e+001  6.173744e+001  2.000000e+000
      vertex  5.125000e+001  6.050000e+001  0.000000e+000
      vertex  5.176256e+001  6.173744e+001  0.000000e+000
    endloop
  endfacet
  facet normal  3.826822e-001 -9.238800e-001  0.000000e+000
    outer loop
      vertex  5.176256e+001  6.173744e+001  2.000000e+000
      vertex  5.176256e+001  6.173744e+001  0.000000e+000
      vertex  5.300000e+001  6.225000e+001  2.000000e+000
    endloop
  endfacet
  facet normal  3.826822e-001 -9.238800e-001  0.000000e+000
    outer loop
      vertex  5.300000e+001  6.225000e+001  2.000000e+000
      vertex  5.176256e+001  6.173744e+001  0.000000e+000
      vertex  5.300000e+001  6.225000e+001  0.000000e+000
    endloop
  endfacet
  facet normal -3.826822e-001 -9.238800e-001  0.000000e+000
    outer loop
      vertex  5.300000e+001  6.225000e+001  2.000000e+000
      vertex  5.300000e+001  6.225000e+001  0.000000e+000
      vertex  5.423744e+001  6.173744e+001  2.000000e+000
    endloop
  endfacet
  facet normal -3.826822e-001 -9.238800e-001  0.000000e+000
    outer loop
      vertex  5.423744e+001  6.173744e+001  2.000000e+000
      vertex  5.300000e+001  6.225000e+001  0.000000e+000
      vertex  5.423744e+001  6.173744e+001  0.000000e+000
    endloop
  endfacet
  facet normal -9.238800e-001 -3.826822e-001  0.000000e+000
    outer loop
      vertex  5.423744e+001  6.173744e+001  2.000000e+000
      vertex  5.423744e+001  6.173744e+001  0.000000e+000
      vertex  5.475000e+001  6.050000e+001  2.000000e+000
    endloop
  endfacet
  facet normal -9.238800e-001 -3.826822e-001  0.000000e+000
    outer loop
      vertex  5.475000e+001  6.050000e+001  2.000000e+000
      vertex  5.423744e+001  6.173744e+001  0.000000e+000
      vertex  5.475000e+001  6.050000e+001  0.000000e+000
    endloop
  endfacet
  facet normal -9.238800e-001  3.826822e-001  0.000000e+000
    outer loop
      vertex  5.475000e+001  6.050000e+001  2.000000e+000
      vertex  5.475000e+001  6.050000e+001  0.000000e+000
      vertex  5.423744e+001  5.926256e+001  2.000000e+000
    endloop
  endfacet
  facet normal -9.238800e-001  3.826822e-001  0.000000e+000
    outer loop
      vertex  5.423744e+001  5.926256e+001  2.000000e+000
      vertex  5.475000e+001  6.050000e+001  0.000000e+000
      vertex  5.423744e+001  5.926256e+001  0.000000e+000
    endloop
  endfacet
  facet normal -3.826822e-001  9.238800e-001  0.000000e+000
    outer loop
      vertex  5.423744e+001  5.926256e+001  2.000000e+000
      vertex  5.423744e+001  5.926256e+001  0.000000e+000
      vertex  5.300000e+001  5.875000e+001  2.000000e+000
    endloop
  endfacet
  facet normal -3.826822e-001  9.238800e-001  0.000000e+000
    outer loop
      vertex  5.300000e+001  5.875000e+001  2.000000e+000
      vertex  5.423744e+001  5.926256e+001  0.000000e+000
      vertex  5.300000e+001  5.875000e+001  0.000000e+000
    endloop
  endfacet
  facet normal  3.826822e-001  9.238800e-001  0.000000e+000
    outer loop
      vertex  5.300000e+001  5.875000e+001  2.000000e+000
      vertex  5.300000e+001  5.875000e+001  0.000000e+000
      vertex  5.176256e+001  5.926256e+001  2.000000e+000
    endloop
  endfacet
  facet normal  3.826822e-001  9.238800e-001  0.000000e+000
    outer loop
      vertex  5.176256e+001  5.926256e+001  2.000000e+000
      vertex  5.300000e+001  5.875000e+001  0.000000e+000
      vertex  5.176256e+001  5.926256e+001  0.000000e+000
    endloop
  endfacet
  facet normal  9.238800e-001  3.826822e-001  0.000000e+000
    outer loop
      vertex  5.176256e+001  5.926256e+001  2.000000e+000
      vertex  5.176256e+001  5.926256e+001  0.000000e+000
      vertex  5.125000e+001  6.050000e+001  2.000000e+000
    endloop
  endfacet
  facet normal  9.238800e-001  3.826822e-001  0.000000e+000
    outer loop
      vertex  5.125000e+001  6.050000e+001  2.000000e+000
      vertex  5.176256e+001  5.926256e+001  0.000000e+000
      vertex  5.125000e+001  6.050000e+001  0.000000e+000
    endloop
  endfacet
  facet normal  0.000000e+000 -1.000000e+000  0.000000e+000
    outer loop
      vertex  5.500000e+001 -6.750000e+001  0.000000e+000
      vertex  5.500000e+001 -6.750000e+001  2.000000e+000
      vertex -5.500000e+001 -6.750000e+001  0.000000e+000
    endloop
  endfacet
  facet normal  0.000000e+000 -1.000000e+000  0.000000e+000
    outer loop
      vertex -5.500000e+001 -6.750000e+001  0.000000e+000
      vertex  5.500000e+001 -6.750000e+001  2.000000e+000
      vertex -5.500000e+001 -6.750000e+001  2.000000e+000
    endloop
  endfacet
  facet normal -1.000000e+000  0.000000e+000  0.000000e+000
    outer loop
      vertex -6.000000e+001 -6.250000e+001  0.000000e+000
      vertex -6.000000e+001 -6.250000e+001  2.000000e+000
      vertex -6.000000e+001  6.250000e+001  0.000000e+000
    endloop
  endfacet
  facet normal -1.000000e+000  0.000000e+000  0.000000e+000
    outer loop
      vertex -6.000000e+001  6.250000e+001  0.000000e+000
      vertex -6.000000e+001 -6.250000e+001  2.000000e+000
      vertex -6.000000e+001  6.250000e+001  2.000000e+000
    endloop
  endfacet
  facet normal -2.588202e-001 -9.659255e-001  0.000000e+000
    outer loop
      vertex -5.500000e+001 -6.750000e+001  0.000000e+000
      vertex -5.500000e+001 -6.750000e+001  2.000000e+000
      vertex -5.750000e+001 -6.683012e+001  0.000000e+000
    endloop
  endfacet
  facet normal -2.588202e-001 -9.659255e-001  0.000000e+000
    outer loop
      vertex -5.750000e+001 -6.683012e+001  0.000000e+000
      vertex -5.500000e+001 -6.750000e+001  2.000000e+000
      vertex -5.750000e+001 -6.683012e+001  2.000000e+000
    endloop
  endfacet
  facet normal -7.071061e-001 -7.071075e-001  0.000000e+000
    outer loop
      vertex -5.750000e+001 -6.683012e+001  0.000000e+000
      vertex -5.750000e+001 -6.683012e+001  2.000000e+000
      vertex -5.933013e+001 -6.500000e+001  0.000000e+000
    endloop
  endfacet
  facet normal -7.071061e-001 -7.071075e-001  0.000000e+000
    outer loop
      vertex -5.933013e+001 -6.500000e+001  0.000000e+000
      vertex -5.750000e+001 -6.683012e+001  2.000000e+000
      vertex -5.933013e+001 -6.500000e+001  2.000000e+000
    endloop
  endfacet
  facet normal -9.659259e-001 -2.588188e-001  0.000000e+000
    outer loop
      vertex -5.933013e+001 -6.500000e+001  0.000000e+000
      vertex -5.933013e+001 -6.500000e+001  2.000000e+000
      vertex -6.000000e+001 -6.250000e+001  0.000000e+000
    endloop
  endfacet
  facet normal -9.659259e-001 -2.588188e-001  0.000000e+000
    outer loop
      vertex -6.000000e+001 -6.250000e+001  0.000000e+000
      vertex -5.933013e+001 -6.500000e+001  2.000000e+000
      vertex -6.000000e+001 -6.250000e+001  2.000000e+000
    endloop
  endfacet
  facet normal  1.000000e+000  0.000000e+000  0.000000e+000
    outer loop
      vertex  6.000000e+001  6.250000e+001  0.000000e+000
      vertex  6.000000e+001  6.250000e+001  2.000000e+000
      vertex  6.000000e+001 -6.250000e+001  0.000000e+000
    endloop
  endfacet
  facet normal  1.000000e+000  0.000000e+000  0.000000e+000
    outer loop
      vertex  6.000000e+001 -6.250000e+001  0.000000e+000
      vertex  6.000000e+001  6.250000e+001  2.000000e+000
      vertex  6.000000e+001 -6.250000e+001  2.000000e+000
    endloop
  endfacet
  facet normal  9.659259e-001 -2.588188e-001  0.000000e+000
    outer loop
      vertex  6.000000e+001 -6.250000e+001  0.000000e+000
      vertex  6.000000e+001 -6.250000e+001  2.000000e+000
      vertex  5.933013e+001 -6.500000e+001  0.000000e+000
    endloop
  endfacet
  facet normal  9.659259e-001 -2.588188e-001  0.000000e+000
    outer loop
      vertex  5.933013e+001 -6.500000e+001  0.000000e+000
      vertex  6.000000e+001 -6.250000e+001  2.000000e+000
      vertex  5.933013e+001 -6.500000e+001  2.000000e+000
    endloop
  endfacet
  facet normal  7.071061e-001 -7.071075e-001  0.000000e+000
    outer loop
      vertex  5.933013e+001 -6.500000e+001  0.000000e+000
      vertex  5.933013e+001 -6.500000e+001  2.000000e+000
      vertex  5.750000e+001 -6.683012e+001  0.000000e+000
    endloop
  endfacet
  facet normal  7.071061e-001 -7.071075e-001  0.000000e+000
    outer loop
      vertex  5.750000e+001 -6.683012e+001  0.000000e+000
      vertex  5.933013e+001 -6.500000e+001  2.000000e+000
      vertex  5.750000e+001 -6.683012e+001  2.000000e+000
    endloop
  endfacet
  facet normal  2.588202e-001 -9.659255e-001  0.000000e+000
    outer loop
      vertex  5.750000e+001 -6.683012e+001  0.000000e+000
      vertex  5.750000e+001 -6.683012e+001  2.000000e+000
      vertex  5.500000e+001 -6.750000e+001  0.000000e+000
    endloop
  endfacet
  facet normal  2.588202e-001 -9.659255e-001  0.000000e+000
    outer loop
      vertex  5.500000e+001 -6.750000e+001  0.000000e+000
      vertex  5.750000e+001 -6.683012e+001  2.000000e+000
      vertex  5.500000e+001 -6.750000e+001  2.000000e+000
    endloop
  endfacet
  facet normal  0.000000e+000  1.000000e+000  0.000000e+000
    outer loop
      vertex -5.500000e+001  6.750000e+001  0.000000e+000
      vertex -5.500000e+001  6.750000e+001  2.000000e+000
      vertex  5.500000e+001  6.750000e+001  0.000000e+000
    endloop
  endfacet
  facet normal  0.000000e+000  1.000000e+000  0.000000e+000
    outer loop
      vertex  5.500000e+001  6.750000e+001  0.000000e+000
      vertex -5.500000e+001  6.750000e+001  2.000000e+000
      vertex  5.500000e+001  6.750000e+001  2.000000e+000
    endloop
  endfacet
  facet normal -9.659259e-001  2.588188e-001  0.000000e+000
    outer loop
      vertex -6.000000e+001  6.250000e+001  0.000000e+000
      vertex -6.000000e+001  6.250000e+001  2.000000e+000
      vertex -5.933013e+001  6.500000e+001  0.000000e+000
    endloop
  endfacet
  facet normal -9.659259e-001  2.588188e-001  0.000000e+000
    outer loop
      vertex -5.933013e+001  6.500000e+001  0.000000e+000
      vertex -6.000000e+001  6.250000e+001  2.000000e+000
      vertex -5.933013e+001  6.500000e+001  2.000000e+000
    endloop
  endfacet
  facet normal -7.071061e-001  7.071075e-001  0.000000e+000
    outer loop
      vertex -5.933013e+001  6.500000e+001  0.000000e+000
      vertex -5.933013e+001  6.500000e+001  2.000000e+000
      vertex -5.750000e+001  6.683012e+001  0.000000e+000
    endloop
  endfacet
  facet normal -7.071061e-001  7.071075e-001  0.000000e+000
    outer loop
      vertex -5.750000e+001  6.683012e+001  0.000000e+000
      vertex -5.933013e+001  6.500000e+001  2.000000e+000
      vertex -5.750000e+001  6.683012e+001  2.000000e+000
    endloop
  endfacet
  facet normal -2.588202e-001  9.659255e-001  0.000000e+000
    outer loop
      vertex -5.750000e+001  6.683012e+001  0.000000e+000
      vertex -5.750000e+001  6.683012e+001  2.000000e+000
      vertex -5.500000e+001  6.750000e+001  0.000000e+000
    endloop
  endfacet
  facet normal -2.588202e-001  9.659255e-001  0.000000e+000
    outer loop
      vertex -5.500000e+001  6.750000e+001  0.000000e+000
      vertex -5.750000e+001  6.683012e+001  2.000000e+000
      vertex -5.500000e+001  6.750000e+001  2.000000e+000
    endloop
  endfacet
  facet normal  2.588202e-001  9.659255e-001  0.000000e+000
    outer loop
      vertex  5.500000e+001  6.750000e+001  0.000000e+000
      vertex  5.500000e+001  6.750000e+001  2.000000e+000
      vertex  5.750000e+001  6.683012e+001  0.000000e+000
    endloop
  endfacet
  facet normal  2.588202e-001  9.659255e-001  0.000000e+000
    outer loop
      vertex  5.750000e+001  6.683012e+001  0.000000e+000
      vertex  5.500000e+001  6.750000e+001  2.000000e+000
      vertex  5.750000e+001  6.683012e+001  2.000000e+000
    endloop
  endfacet
  facet normal  7.071061e-001  7.071075e-001  0.000000e+000
    outer loop
      vertex  5.750000e+001  6.683012e+001  0.000000e+000
      vertex  5.750000e+001  6.683012e+001  2.000000e+000
      vertex  5.933013e+001  6.500000e+001  0.000000e+000
    endloop
  endfacet
  facet normal  7.071061e-001  7.071075e-001  0.000000e+000
    outer loop
      vertex  5.933013e+001  6.500000e+001  0.000000e+000
      vertex  5.750000e+001  6.683012e+001  2.000000e+000
      vertex  5.933013e+001  6.500000e+001  2.000000e+000
    endloop
  endfacet
  facet normal  9.659259e-001  2.588188e-001  0.000000e+000
    outer loop
      vertex  5.933013e+001  6.500000e+001  0.000000e+000
      vertex  5.933013e+001  6.500000e+001  2.000000e+000
      vertex  6.000000e+001  6.250000e+001  0.000000e+000
    endloop
  endfacet
  facet normal  9.659259e-001  2.588188e-001  0.000000e+000
    outer loop
      vertex  6.000000e+001  6.250000e+001  0.000000e+000
      vertex  5.933013e+001  6.500000e+001  2.000000e+000
      vertex  6.000000e+001  6.250000e+001  2.000000e+000
    endloop
  endfacet
  facet normal -9.238800e-001  3.826822e-001  0.000000e+000
    outer loop
      vertex -4.350000e+001 -5.175000e+001  2.000000e+000
      vertex -4.350000e+001 -5.175000e+001  0.000000e+000
      vertex -4.401256e+001 -5.298744e+001  2.000000e+000
    endloop
  endfacet
  facet normal -9.238800e-001  3.826822e-001  0.000000e+000
    outer loop
      vertex -4.401256e+001 -5.298744e+001  2.000000e+000
      vertex -4.350000e+001 -5.175000e+001  0.000000e+000
      vertex -4.401256e+001 -5.298744e+001  0.000000e+000
    endloop
  endfacet
  facet normal -3.826822e-001  9.238800e-001  0.000000e+000
    outer loop
      vertex -4.401256e+001 -5.298744e+001  2.000000e+000
      vertex -4.401256e+001 -5.298744e+001  0.000000e+000
      vertex -4.525000e+001 -5.350000e+001  2.000000e+000
    endloop
  endfacet
  facet normal -3.826822e-001  9.238800e-001  0.000000e+000
    outer loop
      vertex -4.525000e+001 -5.350000e+001  2.000000e+000
      vertex -4.401256e+001 -5.298744e+001  0.000000e+000
      vertex -4.525000e+001 -5.350000e+001  0.000000e+000
    endloop
  endfacet
  facet normal  3.826822e-001  9.238800e-001  0.000000e+000
    outer loop
      vertex -4.525000e+001 -5.350000e+001  2.000000e+000
      vertex -4.525000e+001 -5.350000e+001  0.000000e+000
      vertex -4.648744e+001 -5.298744e+001  2.000000e+000
    endloop
  endfacet
  facet normal  3.826822e-001  9.238800e-001  0.000000e+000
    outer loop
      vertex -4.648744e+001 -5.298744e+001  2.000000e+000
      vertex -4.525000e+001 -5.350000e+001  0.000000e+000
      vertex -4.648744e+001 -5.298744e+001  0.000000e+000
    endloop
  endfacet
  facet normal  9.238800e-001  3.826822e-001  0.000000e+000
    outer loop
      vertex -4.648744e+001 -5.298744e+001  2.000000e+000
      vertex -4.648744e+001 -5.298744e+001  0.000000e+000
      vertex -4.700000e+001 -5.175000e+001  2.000000e+000
    endloop
  endfacet
  facet normal  9.238800e-001  3.826822e-001  0.000000e+000
    outer loop
      vertex -4.700000e+001 -5.175000e+001  2.000000e+000
      vertex -4.648744e+001 -5.298744e+001  0.000000e+000
      vertex -4.700000e+001 -5.175000e+001  0.000000e+000
    endloop
  endfacet
  facet normal  9.238800e-001 -3.826822e-001  0.000000e+000
    outer loop
      vertex -4.700000e+001 -5.175000e+001  2.000000e+000
      vertex -4.700000e+001 -5.175000e+001  0.000000e+000
      vertex -4.648744e+001 -5.051256e+001  2.000000e+000
    endloop
  endfacet
  facet normal  9.238800e-001 -3.826822e-001  0.000000e+000
    outer loop
      vertex -4.648744e+001 -5.051256e+001  2.000000e+000
      vertex -4.700000e+001 -5.175000e+001  0.000000e+000
      vertex -4.648744e+001 -5.051256e+001  0.000000e+000
    endloop
  endfacet
  facet normal  3.826822e-001 -9.238800e-001  0.000000e+000
    outer loop
      vertex -4.648744e+001 -5.051256e+001  2.000000e+000
      vertex -4.648744e+001 -5.051256e+001  0.000000e+000
      vertex -4.525000e+001 -5.000000e+001  2.000000e+000
    endloop
  endfacet
  facet normal  3.826822e-001 -9.238800e-001  0.000000e+000
    outer loop
      vertex -4.525000e+001 -5.000000e+001  2.000000e+000
      vertex -4.648744e+001 -5.051256e+001  0.000000e+000
      vertex -4.525000e+001 -5.000000e+001  0.000000e+000
    endloop
  endfacet
  facet normal -3.826822e-001 -9.238800e-001  0.000000e+000
    outer loop
      vertex -4.525000e+001 -5.000000e+001  2.000000e+000
      vertex -4.525000e+001 -5.000000e+001  0.000000e+000
      vertex -4.401256e+001 -5.051256e+001  2.000000e+000
    endloop
  endfacet
  facet normal -3.826822e-001 -9.238800e-001  0.000000e+000
    outer loop
      vertex -4.401256e+001 -5.051256e+001  2.000000e+000
      vertex -4.525000e+001 -5.000000e+001  0.000000e+000
      vertex -4.401256e+001 -5.051256e+001  0.000000e+000
    endloop
  endfacet
  facet normal -9.238800e-001 -3.826822e-001  0.000000e+000
    outer loop
      vertex -4.401256e+001 -5.051256e+001  2.000000e+000
      vertex -4.401256e+001 -5.051256e+001  0.000000e+000
      vertex -4.350000e+001 -5.175000e+001  2.000000e+000
    endloop
  endfacet
  facet normal -9.238800e-001 -3.826822e-001  0.000000e+000
    outer loop
      vertex -4.350000e+001 -5.175000e+001  2.000000e+000
      vertex -4.401256e+001 -5.051256e+001  0.000000e+000
      vertex -4.350000e+001 -5.175000e+001  0.000000e+000
    endloop
  endfacet
  facet normal -9.238800e-001  3.826822e-001  0.000000e+000
    outer loop
      vertex -4.350000e+001  5.175000e+001  2.000000e+000
      vertex -4.350000e+001  5.175000e+001  0.000000e+000
      vertex -4.401256e+001  5.051256e+001  2.000000e+000
    endloop
  endfacet
  facet normal -9.238800e-001  3.826822e-001  0.000000e+000
    outer loop
      vertex -4.401256e+001  5.051256e+001  2.000000e+000
      vertex -4.350000e+001  5.175000e+001  0.000000e+000
      vertex -4.401256e+001  5.051256e+001  0.000000e+000
    endloop
  endfacet
  facet normal -3.826822e-001  9.238800e-001  0.000000e+000
    outer loop
      vertex -4.401256e+001  5.051256e+001  2.000000e+000
      vertex -4.401256e+001  5.051256e+001  0.000000e+000
      vertex -4.525000e+001  5.000000e+001  2.000000e+000
    endloop
  endfacet
  facet normal -3.826822e-001  9.238800e-001  0.000000e+000
    outer loop
      vertex -4.525000e+001  5.000000e+001  2.000000e+000
      vertex -4.401256e+001  5.051256e+001  0.000000e+000
      vertex -4.525000e+001  5.000000e+001  0.000000e+000
    endloop
  endfacet
  facet normal  3.826822e-001  9.238800e-001  0.000000e+000
    outer loop
      vertex -4.525000e+001  5.000000e+001  2.000000e+000
      vertex -4.525000e+001  5.000000e+001  0.000000e+000
      vertex -4.648744e+001  5.051256e+001  2.000000e+000
    endloop
  endfacet
  facet normal  3.826822e-001  9.238800e-001  0.000000e+000
    outer loop
      vertex -4.648744e+001  5.051256e+001  2.000000e+000
      vertex -4.525000e+001  5.000000e+001  0.000000e+000
      vertex -4.648744e+001  5.051256e+001  0.000000e+000
    endloop
  endfacet
  facet normal  9.238800e-001  3.826822e-001  0.000000e+000
    outer loop
      vertex -4.648744e+001  5.051256e+001  2.000000e+000
      vertex -4.648744e+001  5.051256e+001  0.000000e+000
      vertex -4.700000e+001  5.175000e+001  2.000000e+000
    endloop
  endfacet
  facet normal  9.238800e-001  3.826822e-001  0.000000e+000
    outer loop
      vertex -4.700000e+001  5.175000e+001  2.000000e+000
      vertex -4.648744e+001  5.051256e+001  0.000000e+000
      vertex -4.700000e+001  5.175000e+001  0.000000e+000
    endloop
  endfacet
  facet normal  9.238800e-001 -3.826822e-001  0.000000e+000
    outer loop
      vertex -4.700000e+001  5.175000e+001  2.000000e+000
      vertex -4.700000e+001  5.175000e+001  0.000000e+000
      vertex -4.648744e+001  5.298744e+001  2.000000e+000
    endloop
  endfacet
  facet normal  9.238800e-001 -3.826822e-001  0.000000e+000
    outer loop
      vertex -4.648744e+001  5.298744e+001  2.000000e+000
      vertex -4.700000e+001  5.175000e+001  0.000000e+000
      vertex -4.648744e+001  5.298744e+001  0.000000e+000
    endloop
  endfacet
  facet normal  3.826822e-001 -9.238800e-001  0.000000e+000
    outer loop
      vertex -4.648744e+001  5.298744e+001  2.000000e+000
      vertex -4.648744e+001  5.298744e+001  0.000000e+000
      vertex -4.525000e+001  5.350000e+001  2.000000e+000
    endloop
  endfacet
  facet normal  3.826822e-001 -9.238800e-001  0.000000e+000
    outer loop
      vertex -4.525000e+001  5.350000e+001  2.000000e+000
      vertex -4.648744e+001  5.298744e+001  0.000000e+000
      vertex -4.525000e+001  5.350000e+001  0.000000e+000
    endloop
  endfacet
  facet normal -3.826822e-001 -9.238800e-001  0.000000e+000
    outer loop
      vertex -4.525000e+001  5.350000e+001  2.000000e+000
      vertex -4.525000e+001  5.350000e+001  0.000000e+000
      vertex -4.401256e+001  5.298744e+001  2.000000e+000
    endloop
  endfacet
  facet normal -3.826822e-001 -9.238800e-001  0.000000e+000
    outer loop
      vertex -4.401256e+001  5.298744e+001  2.000000e+000
      vertex -4.525000e+001  5.350000e+001  0.000000e+000
      vertex -4.401256e+001  5.298744e+001  0.000000e+000
    endloop
  endfacet
  facet normal -9.238800e-001 -3.826822e-001  0.000000e+000
    outer loop
      vertex -4.401256e+001  5.298744e+001  2.000000e+000
      vertex -4.401256e+001  5.298744e+001  0.000000e+000
      vertex -4.350000e+001  5.175000e+001  2.000000e+000
    endloop
  endfacet
  facet normal -9.238800e-001 -3.826822e-001  0.000000e+000
    outer loop
      vertex -4.350000e+001  5.175000e+001  2.000000e+000
      vertex -4.401256e+001  5.298744e+001  0.000000e+000
      vertex -4.350000e+001  5.175000e+001  0.000000e+000
    endloop
  endfacet
  facet normal  9.238800e-001 -3.826822e-001  0.000000e+000
    outer loop
      vertex  4.350000e+001  5.175000e+001  2.000000e+000
      vertex  4.350000e+001  5.175000e+001  0.000000e+000
      vertex  4.401256e+001  5.298744e+001  2.000000e+000
    endloop
  endfacet
  facet normal  9.238800e-001 -3.826822e-001  0.000000e+000
    outer loop
      vertex  4.401256e+001  5.298744e+001  2.000000e+000
      vertex  4.350000e+001  5.175000e+001  0.000000e+000
      vertex  4.401256e+001  5.298744e+001  0.000000e+000
    endloop
  endfacet
  facet normal  3.826822e-001 -9.238800e-001  0.000000e+000
    outer loop
      vertex  4.401256e+001  5.298744e+001  2.000000e+000
      vertex  4.401256e+001  5.298744e+001  0.000000e+000
      vertex  4.525000e+001  5.350000e+001  2.000000e+000
    endloop
  endfacet
  facet normal  3.826822e-001 -9.238800e-001  0.000000e+000
    outer loop
      vertex  4.525000e+001  5.350000e+001  2.000000e+000
      vertex  4.401256e+001  5.298744e+001  0.000000e+000
      vertex  4.525000e+001  5.350000e+001  0.000000e+000
    endloop
  endfacet
  facet normal -3.826822e-001 -9.238800e-001  0.000000e+000
    outer loop
      vertex  4.525000e+001  5.350000e+001  2.000000e+000
      vertex  4.525000e+001  5.350000e+001  0.000000e+000
      vertex  4.648744e+001  5.298744e+001  2.000000e+000
    endloop
  endfacet
  facet normal -3.826822e-001 -9.238800e-001  0.000000e+000
    outer loop
      vertex  4.648744e+001  5.298744e+001  2.000000e+000
      vertex  4.525000e+001  5.350000e+001  0.000000e+000
      vertex  4.648744e+001  5.298744e+001  0.000000e+000
    endloop
  endfacet
  facet normal -9.238800e-001 -3.826822e-001  0.000000e+000
    outer loop
      vertex  4.648744e+001  5.298744e+001  2.000000e+000
      vertex  4.648744e+001  5.298744e+001  0.000000e+000
      vertex  4.700000e+001  5.175000e+001  2.000000e+000
    endloop
  endfacet
  facet normal -9.238800e-001 -3.826822e-001  0.000000e+000
    outer loop
      vertex  4.700000e+001  5.175000e+001  2.000000e+000
      vertex  4.648744e+001  5.298744e+001  0.000000e+000
      vertex  4.700000e+001  5.175000e+001  0.000000e+000
    endloop
  endfacet
  facet normal -9.238800e-001  3.826822e-001  0.000000e+000
    outer loop
      vertex  4.700000e+001  5.175000e+001  2.000000e+000
      vertex  4.700000e+001  5.175000e+001  0.000000e+000
      vertex  4.648744e+001  5.051256e+001  2.000000e+000
    endloop
  endfacet
  facet normal -9.238800e-001  3.826822e-001  0.000000e+000
    outer loop
      vertex  4.648744e+001  5.051256e+001  2.000000e+000
      vertex  4.700000e+001  5.175000e+001  0.000000e+000
      vertex  4.648744e+001  5.051256e+001  0.000000e+000
    endloop
  endfacet
  facet normal -3.826822e-001  9.238800e-001  0.000000e+000
    outer loop
      vertex  4.648744e+001  5.051256e+001  2.000000e+000
      vertex  4.648744e+001  5.051256e+001  0.000000e+000
      vertex  4.525000e+001  5.000000e+001  2.000000e+000
    endloop
  endfacet
  facet normal -3.826822e-001  9.238800e-001  0.000000e+000
    outer loop
      vertex  4.525000e+001  5.000000e+001  2.000000e+000
      vertex  4.648744e+001  5.051256e+001  0.000000e+000
      vertex  4.525000e+001  5.000000e+001  0.000000e+000
    endloop
  endfacet
  facet normal  3.826822e-001  9.238800e-001  0.000000e+000
    outer loop
      vertex  4.525000e+001  5.000000e+001  2.000000e+000
      vertex  4.525000e+001  5.000000e+001  0.000000e+000
      vertex  4.401256e+001  5.051256e+001  2.000000e+000
    endloop
  endfacet
  facet normal  3.826822e-001  9.238800e-001  0.000000e+000
    outer loop
      vertex  4.401256e+001  5.051256e+001  2.000000e+000
      vertex  4.525000e+001  5.000000e+001  0.000000e+000
      vertex  4.401256e+001  5.051256e+001  0.000000e+000
    endloop
  endfacet
  facet normal  9.238800e-001  3.826822e-001  0.000000e+000
    outer loop
      vertex  4.401256e+001  5.051256e+001  2.000000e+000
      vertex  4.401256e+001  5.051256e+001  0.000000e+000
      vertex  4.350000e+001  5.175000e+001  2.000000e+000
    endloop
  endfacet
  facet normal  9.238800e-001  3.826822e-001  0.000000e+000
    outer loop
      vertex  4.350000e+001  5.175000e+001  2.000000e+000
      vertex  4.401256e+001  5.051256e+001  0.000000e+000
      vertex  4.350000e+001  5.175000e+001  0.000000e+000
    endloop
  endfacet
  facet normal  9.238800e-001 -3.826822e-001  0.000000e+000
    outer loop
      vertex  4.350000e+001 -5.175000e+001  2.000000e+000
      vertex  4.350000e+001 -5.175000e+001  0.000000e+000
      vertex  4.401256e+001 -5.051256e+001  2.000000e+000
    endloop
  endfacet
  facet normal  9.238800e-001 -3.826822e-001  0.000000e+000
    outer loop
      vertex  4.401256e+001 -5.051256e+001  2.000000e+000
      vertex  4.350000e+001 -5.175000e+001  0.000000e+000
      vertex  4.401256e+001 -5.051256e+001  0.000000e+000
    endloop
  endfacet
  facet normal  3.826822e-001 -9.238800e-001  0.000000e+000
    outer loop
      vertex  4.401256e+001 -5.051256e+001  2.000000e+000
      vertex  4.401256e+001 -5.051256e+001  0.000000e+000
      vertex  4.525000e+001 -5.000000e+001  2.000000e+000
    endloop
  endfacet
  facet normal  3.826822e-001 -9.238800e-001  0.000000e+000
    outer loop
      vertex  4.525000e+001 -5.000000e+001  2.000000e+000
      vertex  4.401256e+001 -5.051256e+001  0.000000e+000
      vertex  4.525000e+001 -5.000000e+001  0.000000e+000
    endloop
  endfacet
  facet normal -3.826822e-001 -9.238800e-001  0.000000e+000
    outer loop
      vertex  4.525000e+001 -5.000000e+001  2.000000e+000
      vertex  4.525000e+001 -5.000000e+001  0.000000e+000
      vertex  4.648744e+001 -5.051256e+001  2.000000e+000
    endloop
  endfacet
  facet normal -3.826822e-001 -9.238800e-001  0.000000e+000
    outer loop
      vertex  4.648744e+001 -5.051256e+001  2.000000e+000
      vertex  4.525000e+001 -5.000000e+001  0.000000e+000
      vertex  4.648744e+001 -5.051256e+001  0.000000e+000
    endloop
  endfacet
  facet normal -9.238800e-001 -3.826822e-001  0.000000e+000
    outer loop
      vertex  4.648744e+001 -5.051256e+001  2.000000e+000
      vertex  4.648744e+001 -5.051256e+001  0.000000e+000
      vertex  4.700000e+001 -5.175000e+001  2.000000e+000
    endloop
  endfacet
  facet normal -9.238800e-001 -3.826822e-001  0.000000e+000
    outer loop
      vertex  4.700000e+001 -5.175000e+001  2.000000e+000
      vertex  4.648744e+001 -5.051256e+001  0.000000e+000
      vertex  4.700000e+001 -5.175000e+001  0.000000e+000
    endloop
  endfacet
  facet normal -9.238800e-001  3.826822e-001  0.000000e+000
    outer loop
      vertex  4.700000e+001 -5.175000e+001  2.000000e+000
      vertex  4.700000e+001 -5.175000e+001  0.000000e+000
      vertex  4.648744e+001 -5.298744e+001  2.000000e+000
    endloop
  endfacet
  facet normal -9.238800e-001  3.826822e-001  0.000000e+000
    outer loop
      vertex  4.648744e+001 -5.298744e+001  2.000000e+000
      vertex  4.700000e+001 -5.175000e+001  0.000000e+000
      vertex  4.648744e+001 -5.298744e+001  0.000000e+000
    endloop
  endfacet
  facet normal -3.826822e-001  9.238800e-001  0.000000e+000
    outer loop
      vertex  4.648744e+001 -5.298744e+001  2.000000e+000
      vertex  4.648744e+001 -5.298744e+001  0.000000e+000
      vertex  4.525000e+001 -5.350000e+001  2.000000e+000
    endloop
  endfacet
  facet normal -3.826822e-001  9.238800e-001  0.000000e+000
    outer loop
      vertex  4.525000e+001 -5.350000e+001  2.000000e+000
      vertex  4.648744e+001 -5.298744e+001  0.000000e+000
      vertex  4.525000e+001 -5.350000e+001  0.000000e+000
    endloop
  endfacet
  facet normal  3.826822e-001  9.238800e-001  0.000000e+000
    outer loop
      vertex  4.525000e+001 -5.350000e+001  2.000000e+000
      vertex  4.525000e+001 -5.350000e+001  0.000000e+000
      vertex  4.401256e+001 -5.298744e+001  2.000000e+000
    endloop
  endfacet
  facet normal  3.826822e-001  9.238800e-001  0.000000e+000
    outer loop
      vertex  4.401256e+001 -5.298744e+001  2.000000e+000
      vertex  4.525000e+001 -5.350000e+001  0.000000e+000
      vertex  4.401256e+001 -5.298744e+001  0.000000e+000
    endloop
  endfacet
  facet normal  9.238800e-001  3.826822e-001  0.000000e+000
    outer loop
      vertex  4.401256e+001 -5.298744e+001  2.000000e+000
      vertex  4.401256e+001 -5.298744e+001  0.000000e+000
      vertex  4.350000e+001 -5.175000e+001  2.000000e+000
    endloop
  endfacet
  facet normal  9.238800e-001  3.826822e-001  0.000000e+000
    outer loop
      vertex  4.350000e+001 -5.175000e+001  2.000000e+000
      vertex  4.401256e+001 -5.298744e+001  0.000000e+000
      vertex  4.350000e+001 -5.175000e+001  0.000000e+000
    endloop
  endfacet
endsolid CATIA STL
